<?xml version="1.0" encoding="UTF-8"?>
<svg version="1.1" xmlns="http://www.w3.org/2000/svg" width="1024" height="1024">
<path d="M0 0 C337.92 0 675.84 0 1024 0 C1024 337.92 1024 675.84 1024 1024 C686.08 1024 348.16 1024 0 1024 C0 686.08 0 348.16 0 0 Z " fill="#FEFEFE" transform="translate(0,0)"/>
<path d="M0 0 C80.52 0 161.04 0 244 0 C244 21.12 244 42.24 244 64 C201.76 64 159.52 64 116 64 C122.72166968 78.5103479 122.72166968 78.5103479 129.27125549 80.84178162 C131.46836916 80.96661346 131.46836916 80.96661346 133.73266602 80.79467773 C134.96358727 80.81259369 134.96358727 80.81259369 136.21937561 80.83087158 C138.90292317 80.85252779 141.57182338 80.76911264 144.25390625 80.68359375 C146.12433591 80.67804747 147.9947959 80.67913247 149.86521912 80.6865387 C154.76485874 80.68827054 159.65887966 80.60053487 164.55718994 80.49353027 C170.44633158 80.38373454 176.33638699 80.38610841 182.22638702 80.36948395 C191.15454045 80.33182085 200.06974857 80.15260434 209 80 C209 101.45 209 122.9 209 145 C194.48 145 179.96 145 165 145 C173.44672469 159.36538732 173.44672469 159.36538732 182.0625 173.625 C188.78852398 184.62037962 188.78852398 184.62037962 191.82421875 189.765625 C192.44768188 190.82015869 192.44768188 190.82015869 193.08374023 191.89599609 C193.83899304 193.17757014 194.59008614 194.46160845 195.33618164 195.74853516 C197.11252982 198.92706107 197.11252982 198.92706107 200 201 C200.25652344 200.30430908 200.51304687 199.60861816 200.77734375 198.8918457 C202.14222908 195.66359755 203.78790032 192.75333798 205.5625 189.73046875 C205.90988724 189.13719788 206.25727448 188.543927 206.6151886 187.93267822 C207.73966269 186.01535846 208.86952793 184.10128847 210 182.1875 C210.78022168 180.86142694 211.56041361 179.53533636 212.34057617 178.20922852 C216.62354142 170.94358282 220.96427051 163.7224436 225.47827148 156.59741211 C228.58350696 151.69334458 231.58546581 146.73284438 234.5625 141.75 C245.58787592 123.30682931 256.72168282 104.92555702 268.08984375 86.69140625 C269.94408021 83.71552364 271.77006878 80.7260008 273.56640625 77.71484375 C295.47997291 41.24313018 328.57313485 15.90166516 369.45703125 4.0703125 C370.96804779 3.69978811 372.48306252 3.34548518 374 3 C375.68706055 2.61158936 375.68706055 2.61158936 377.40820312 2.21533203 C387.12394204 0.11510126 396.52880465 -0.46926138 406.45361328 -0.39111328 C408.8667896 -0.37505464 411.2782806 -0.39105499 413.69140625 -0.41015625 C428.08783043 -0.43053251 442.22783256 1.362782 456 5.6875 C456.81976318 5.93951172 457.63952637 6.19152344 458.48413086 6.45117188 C484.1259907 14.62348393 505.20151641 29.01876853 525 47 C524.34 47.33 523.68 47.66 523 48 C521.24622329 47.35500331 519.5221123 46.62930714 517.8125 45.875 C511.36990152 43.29218896 504.90827135 41.69599413 498.125 40.25 C497.13862549 40.03972168 496.15225098 39.82944336 495.13598633 39.61279297 C485.43417614 37.59984635 476.28580398 36.81774381 466.375 36.8125 C464.58255859 36.79413086 464.58255859 36.79413086 462.75390625 36.77539062 C454.64635614 36.76221476 446.9717059 37.55830851 439 39 C437.1128125 39.29970703 437.1128125 39.29970703 435.1875 39.60546875 C418.0955433 42.72642653 402.23639969 48.75261847 387 57 C385.5459375 57.73669922 385.5459375 57.73669922 384.0625 58.48828125 C371.58723945 64.92537063 360.83847904 73.49093725 350.8203125 83.23535156 C349.52331784 84.49268491 348.21765941 85.74110715 346.90625 86.98339844 C337.7656006 95.64529023 329.8098476 103.71353796 324 115 C323.45214844 115.99386719 322.90429688 116.98773438 322.33984375 118.01171875 C318.57858212 125.08141198 316.07179787 132.27784432 314 140 C313.64035156 141.15757812 313.28070312 142.31515625 312.91015625 143.5078125 C311.40865331 149.61266471 311.67143115 155.87742982 311.6875 162.125 C311.67138672 163.35476563 311.65527344 164.58453125 311.63867188 165.8515625 C311.62423445 193.34042289 323.51385287 216.76174762 342.140625 236.23828125 C363.76163157 256.82775125 390.84359681 262.75541076 419.73974609 262.13183594 C425.78345856 261.88744439 431.23625164 260.89493097 437 259 C437.61665527 258.80664062 438.23331055 258.61328125 438.86865234 258.4140625 C463.83219161 250.46303107 484.29788189 233.99095722 497 211 C508.43084459 187.90969393 512.89411452 159.94185619 504.68896484 134.98583984 C504.46160645 134.3305127 504.23424805 133.67518555 504 133 C503.6299585 131.92999756 503.6299585 131.92999756 503.25244141 130.83837891 C494.61077777 106.66400125 477.02901803 86.43294422 453.92871094 74.89501953 C440.07221562 68.46490411 425.23193591 64.79590296 410 64 C417.24983942 59.16677372 426.87866959 57.70415131 435.3125 55.8125 C436.42250366 55.56234131 436.42250366 55.56234131 437.55493164 55.30712891 C456.82120327 51.1147813 476.76088923 52.19520032 496 56 C497.16144531 56.22816406 498.32289063 56.45632813 499.51953125 56.69140625 C506.45943497 58.25043468 512.66761088 60.78831414 519 64 C519.9178125 64.46535156 520.835625 64.93070312 521.78125 65.41015625 C538.71425658 74.32852348 551.56783172 85.40637062 561 102 C561.50273438 102.86496094 562.00546875 103.72992188 562.5234375 104.62109375 C570.16258546 118.71879407 574.04218317 137.2754561 574.2734375 153.23828125 C574.28601089 154.02798813 574.29858429 154.81769501 574.3115387 155.6313324 C574.78757518 192.78012896 567.52380199 228.5019327 545 259 C544.17435547 260.14082031 544.17435547 260.14082031 543.33203125 261.3046875 C538.35771128 267.94499112 532.68817826 273.97502171 527 280 C526.2575 280.79664063 525.515 281.59328125 524.75 282.4140625 C498.08008647 310.16253871 457.5058039 327.42023547 419.21875 328.27734375 C415.9583614 328.32821032 412.69820726 328.35487695 409.4375 328.375 C408.66107147 328.38312714 407.88464294 328.39125427 407.08468628 328.39962769 C392.13483449 328.51667166 377.44525838 326.84789439 363.125 322.375 C362.30531738 322.12194092 361.48563477 321.86888184 360.64111328 321.6081543 C340.49449815 315.13889924 320.9357112 305.02455007 305 291 C304.19691406 290.30519531 303.39382813 289.61039063 302.56640625 288.89453125 C283.51449723 272.10150692 269.87268207 253.89658929 259 231 C255.72099956 234.87248469 253.13805494 238.98611236 250.625 243.375 C246.64094858 250.23663026 242.57227961 257.04064204 238.4375 263.8125 C237.85307129 264.7701123 237.26864258 265.72772461 236.66650391 266.71435547 C235.42999838 268.74016203 234.19334031 270.76587549 232.95654297 272.79150391 C229.82381135 277.92880849 226.70279823 283.07321748 223.58154297 288.21749878 C215.73320553 301.15241812 207.87055638 314.07858644 200 327 C196.22496554 325.74165518 195.83098492 324.55835498 193.8046875 321.19921875 C193.17997559 320.17352783 192.55526367 319.14783691 191.91162109 318.09106445 C190.90349365 316.40630005 190.90349365 316.40630005 189.875 314.6875 C189.16438131 313.51407791 188.45294081 312.34115315 187.74072266 311.16870117 C186.24431324 308.70219316 184.75297871 306.23272126 183.265625 303.76074219 C181.07308558 300.11788029 178.86675726 296.48354251 176.65625 292.8515625 C173.79938003 288.15606542 170.94629935 283.4583054 168.09765625 278.7578125 C164.34315996 272.56330559 160.57985933 266.37419131 156.8125 260.1875 C156.24426514 259.25421875 155.67603027 258.3209375 155.09057617 257.359375 C153.39385949 254.57283014 151.69696268 251.78639506 150 249 C140.37830906 233.20128364 130.77121146 217.3937602 121.17333984 201.58056641 C117.96925917 196.30170482 114.76434205 191.02335107 111.55947876 185.7449646 C109.78961737 182.82999774 108.01981153 179.91499714 106.25 177 C105.54166693 175.83333317 104.8333336 174.66666651 104.125 173.5 C102.70833333 171.16666667 101.29166667 168.83333333 99.875 166.5 C99.52438004 165.92251007 99.17376007 165.34502014 98.81251526 164.75003052 C98.10412469 163.58326599 97.3957405 162.4164976 96.68736267 161.24972534 C94.91745721 158.33452415 93.14744139 155.41939008 91.37719727 152.50439453 C88.17851948 147.2370064 84.98065151 141.96913534 81.78689575 136.69876099 C80.0043072 133.75717779 78.2210274 130.81601403 76.4375 127.875 C76.08659302 127.29627136 75.73568604 126.71754272 75.37414551 126.12127686 C70.204711 117.59846248 64.98848506 109.10560585 59.75 100.625 C54.23274906 91.69028184 48.81216053 82.70566956 43.51074219 73.64111328 C40.11706897 67.84578124 36.62594319 62.11662152 33.09716797 56.40258789 C29.55790332 50.6602443 26.06139514 44.89199736 22.5625 39.125 C22.19282104 38.51603882 21.82314209 37.90707764 21.44226074 37.27966309 C16.51435887 29.16189836 11.60470578 21.03371085 6.73828125 12.87890625 C5.17475877 10.28943194 3.56835034 7.73486128 1.9375 5.1875 C0 2 0 2 0 0 Z " fill="#340592" transform="translate(222,380)"/>
<path d="M0 0 C0.84498047 -0.01224609 1.68996094 -0.02449219 2.56054688 -0.03710938 C3.37201172 -0.03904297 4.18347656 -0.04097656 5.01953125 -0.04296875 C5.74889893 -0.04707764 6.4782666 -0.05118652 7.22973633 -0.05541992 C9.1875 0.1875 9.1875 0.1875 12.1875 2.1875 C11.62160156 3.37988281 11.05570313 4.57226562 10.47265625 5.80078125 C9.73168164 7.36714531 8.99080112 8.93355388 8.25 10.5 C7.87681641 11.28568359 7.50363281 12.07136719 7.11914062 12.88085938 C6.58256836 14.0168457 6.58256836 14.0168457 6.03515625 15.17578125 C5.70523682 15.87227783 5.37531738 16.56877441 5.03540039 17.28637695 C0.9522835 26.44135283 1.86640486 40.01111454 5.1875 49.25 C11.75257896 63.63769418 20.80029129 71.35359146 35.1875 77.1875 C44.90981201 80.42827067 58.80499938 78.84896366 68.1875 75.1875 C70.45982717 73.96393922 72.56591278 72.67635668 74.6640625 71.17578125 C76.1875 70.1875 76.1875 70.1875 78.1875 70.1875 C83.1320858 85.0212574 76.93013917 103.44074276 70.3125 116.8125 C67.20118032 122.78373427 63.73774098 128.19539678 59.1875 133.1875 C58.09695313 134.41533203 58.09695313 134.41533203 56.984375 135.66796875 C44.30926328 149.18127334 25.46848015 158.80056862 6.76953125 159.65625 C4.51324783 159.68990863 2.25650146 159.69970338 0 159.6875 C-1.18311768 159.68395508 -2.36623535 159.68041016 -3.58520508 159.67675781 C-13.15875765 159.4961124 -21.02841276 158.01532643 -29.8125 154.1875 C-30.58851563 153.86523438 -31.36453125 153.54296875 -32.1640625 153.2109375 C-34.13239035 152.30911398 -35.95203544 151.29382563 -37.8125 150.1875 C-38.62460937 149.74277344 -39.43671875 149.29804687 -40.2734375 148.83984375 C-52.31693542 141.81734568 -62.26537498 131.48815913 -68.8125 119.1875 C-69.27011719 118.32898438 -69.72773437 117.47046875 -70.19921875 116.5859375 C-73.87910276 109.09356105 -75.905624 101.28237559 -77.8125 93.1875 C-78.00972656 92.37152344 -78.20695313 91.55554688 -78.41015625 90.71484375 C-81.65427726 70.33672441 -75.47901807 48.93575293 -63.8125 32.1875 C-60.99989982 28.64723629 -58.00583805 25.38625967 -54.8125 22.1875 C-54.12542969 21.48882812 -53.43835938 20.79015625 -52.73046875 20.0703125 C-38.2580141 6.26912198 -19.71947331 0.01539381 0 0 Z " fill="#FB9701" transform="translate(631.8125,463.8125)"/>
<path d="M0 0 C0.33 0.66 0.66 1.32 1 2 C1.66 2 2.32 2 3 2 C3 2.66 3 3.32 3 4 C3.99 4.33 4.98 4.66 6 5 C6 5.99 6 6.98 6 8 C6.66 8 7.32 8 8 8 C8.21914062 8.54527344 8.43828125 9.09054687 8.6640625 9.65234375 C10.8341278 14.8128649 13.37733004 19.30507311 16.6328125 23.859375 C18.10444818 26.163536 18.99097522 28.46369646 20 31 C20.93542376 32.5685936 21.91544656 34.11142468 22.9375 35.625 C23.44152344 36.38039063 23.94554687 37.13578125 24.46484375 37.9140625 C25.85965098 39.80929675 27.32054366 41.36264702 29 43 C30.87895171 45.81842756 32.26558231 48.61252171 33.5 51.75 C33.995 52.8225 34.49 53.895 35 55 C35.99 55.33 36.98 55.66 38 56 C39.0625 58.6171875 39.0625 58.6171875 40 61.875 C41.14007125 65.81774639 41.9212144 68.27259754 45 71 C45.66666667 72.66666667 46.33333333 74.33333333 47 76 C47.45632813 76.42925781 47.91265625 76.85851562 48.3828125 77.30078125 C50.50663655 79.53233551 51.55769649 81.90692151 52.875 84.6875 C55.30904959 89.68212156 57.93268798 94.3730378 61 99 C61.680625 100.051875 62.36125 101.10375 63.0625 102.1875 C64.94420033 105.00575311 64.94420033 105.00575311 67.0625 107.5 C69.65903391 110.85036633 71.30060846 114.47779489 73.0625 118.3125 C73.89321682 120.18189338 73.89321682 120.18189338 76 121 C76 122.32 76 123.64 76 125 C77.485 125.495 77.485 125.495 79 126 C79.309375 127.134375 79.61875 128.26875 79.9375 129.4375 C80.57997946 133.03916801 80.57997946 133.03916801 82.9375 134.1875 C83.618125 134.455625 84.29875 134.72375 85 135 C87.65158589 137.93806376 88.52553899 140.38007409 89.1875 144.25 C89.34605469 145.14203125 89.50460937 146.0340625 89.66796875 146.953125 C89.83232422 147.96632813 89.83232422 147.96632813 90 149 C90.66 149 91.32 149 92 149 C92.268125 149.598125 92.53625 150.19625 92.8125 150.8125 C93.8893979 153.04327908 93.8893979 153.04327908 95.625 154.625 C96.07875 155.07875 96.5325 155.5325 97 156 C97 156.66 97 157.32 97 158 C97.66 158 98.32 158 99 158 C99.309375 159.1446875 99.309375 159.1446875 99.625 160.3125 C101.23167561 164.62131187 103.37814369 168.43030464 105.66015625 172.4140625 C106.82582609 174.66383928 107.52999651 176.52812977 108 179 C108.66 179 109.32 179 110 179 C110.33 180.32 110.66 181.64 111 183 C111.66 183 112.32 183 113 183 C116.40027839 186.50331713 117.54961229 189.15833214 118 194 C118.66 194 119.32 194 120 194 C120.99 197.465 120.99 197.465 122 201 C122.99 201 123.98 201 125 201 C125.74443359 202.52367187 125.74443359 202.52367187 126.50390625 204.078125 C130.31654239 211.82230623 134.2502959 219.36990444 138.75 226.7421875 C140 229 140 229 140 231 C140.66 231 141.32 231 142 231 C143.18600439 233.13480791 144.37155391 235.26984877 145.5546875 237.40625 C146.50938355 239.11954238 147.4727865 240.82801528 148.4453125 242.53125 C148.89648438 243.3253125 149.34765625 244.119375 149.8125 244.9375 C150.44091797 246.03384766 150.44091797 246.03384766 151.08203125 247.15234375 C152 249 152 249 152 251 C152.66 251 153.32 251 154 251 C153.67 252.32 153.34 253.64 153 255 C147.1484375 245.38671875 141.296875 235.7734375 135.4453125 226.16015625 C134.87594971 225.22478027 134.30658691 224.2894043 133.7199707 223.32568359 C132.56223526 221.42367791 131.4045208 219.52165944 130.24682617 217.61962891 C127.36685736 212.88805165 124.48655444 208.15667852 121.60546875 203.42578125 C113.11611619 189.48464025 104.64243472 175.53401816 96.17333984 161.58056641 C92.96925917 156.30170482 89.76434205 151.02335107 86.55947876 145.7449646 C84.78961737 142.82999774 83.01981153 139.91499714 81.25 137 C80.54166693 135.83333317 79.8333336 134.66666651 79.125 133.5 C77.70833333 131.16666667 76.29166667 128.83333333 74.875 126.5 C74.52438004 125.92251007 74.17376007 125.34502014 73.81251526 124.75003052 C73.10412469 123.58326599 72.3957405 122.4164976 71.68736267 121.24972534 C69.91745721 118.33452415 68.14744139 115.41939008 66.37719727 112.50439453 C63.17851948 107.2370064 59.98065151 101.96913534 56.78689575 96.69876099 C55.0043072 93.75717779 53.2210274 90.81601403 51.4375 87.875 C51.08659302 87.29627136 50.73568604 86.71754272 50.37414551 86.12127686 C45.204711 77.59846248 39.98848506 69.10560585 34.75 60.625 C29.19009608 51.62120896 23.74200617 42.55942111 18.38330078 33.43457031 C14.92472491 27.5476791 11.39055231 21.71866617 7.7890625 15.91796875 C4.77166005 10.99657217 1.88342189 6.00093485 -1 1 C-0.67 0.67 -0.34 0.34 0 0 Z " fill="#391775" transform="translate(247,420)"/>
<path d="M0 0 C-3.45543233 2.86057309 -7.28906096 4.6567621 -11.3125 6.5625 C-36.37255174 18.81873169 -64.5766366 40.71079724 -77 66 C-77.81404297 67.48306641 -77.81404297 67.48306641 -78.64453125 68.99609375 C-82.4228213 76.0654491 -84.92642466 83.27121918 -87 91 C-87.3609375 92.15628906 -87.721875 93.31257812 -88.09375 94.50390625 C-89.60158005 100.62709617 -89.2885332 106.9226433 -89.25 113.1875 C-89.25773438 114.42564453 -89.26546875 115.66378906 -89.2734375 116.93945312 C-89.25626998 125.13265353 -88.48669702 132.94423568 -87 141 C-87.66 141.33 -88.32 141.66 -89 142 C-89.19335938 141.34773437 -89.38671875 140.69546875 -89.5859375 140.0234375 C-89.84632813 139.14945313 -90.10671875 138.27546875 -90.375 137.375 C-90.63023437 136.51648438 -90.88546875 135.65796875 -91.1484375 134.7734375 C-91.94763953 131.99224987 -91.94763953 131.99224987 -93.12109375 129.39453125 C-94.43182998 124.33217664 -93.98849079 119.50054548 -93.6875 114.3125 C-93.63916016 113.26771484 -93.59082031 112.22292969 -93.54101562 111.14648438 C-93.14941109 103.44823328 -93.14941109 103.44823328 -92 100 C-91.89893489 98.1050292 -91.81799037 96.20894557 -91.75 94.3125 C-91.36822688 89.03130515 -90.20452682 86.03487693 -87.1328125 81.8046875 C-85.40718078 79.05557765 -85.35997704 76.17979718 -85 73 C-83.5625 70.0625 -83.5625 70.0625 -82 68 C-81.34 68 -80.68 68 -80 68 C-79.87753906 67.42765625 -79.75507812 66.8553125 -79.62890625 66.265625 C-78.97237132 63.90046809 -78.06276488 61.92793203 -76.9375 59.75 C-76.57527344 59.04359375 -76.21304688 58.3371875 -75.83984375 57.609375 C-75.56269531 57.07828125 -75.28554688 56.5471875 -75 56 C-74.34 56 -73.68 56 -73 56 C-73 55.34 -73 54.68 -73 54 C-72.34 54 -71.68 54 -71 54 C-70.67 52.02 -70.34 50.04 -70 48 C-69.34 48 -68.68 48 -68 48 C-67.67 47.01 -67.34 46.02 -67 45 C-65.515 45.495 -65.515 45.495 -64 46 C-63.896875 45.4225 -63.79375 44.845 -63.6875 44.25 C-62.89103535 41.64338842 -61.80934723 40.0264689 -60 38 C-59.34 38 -58.68 38 -58 38 C-58 37.34 -58 36.68 -58 36 C-52.52380952 31 -52.52380952 31 -50 31 C-50 30.34 -50 29.68 -50 29 C-44.58823529 25 -44.58823529 25 -42 25 C-42 24.01 -42 23.02 -42 22 C-41.01 21.67 -40.02 21.34 -39 21 C-38.67 20.34 -38.34 19.68 -38 19 C-37.01 19 -36.02 19 -35 19 C-35 17.35 -35 15.7 -35 14 C-34.41863281 13.88398438 -33.83726562 13.76796875 -33.23828125 13.6484375 C-30.85017489 12.95659517 -29.24460494 12.00757562 -27.1875 10.625 C-24.53903342 8.90399269 -21.99392849 7.48869044 -19.0625 6.3125 C-15.90580009 5.34988538 -15.90580009 5.34988538 -15 3 C-9.70673117 0.19132674 -5.95930219 -0.31364748 0 0 Z " fill="#381776" transform="translate(623,429)"/>
<path d="M0 0 C2.41317632 0.01605864 4.82466732 0.00005829 7.23779297 -0.01904297 C22.14402753 -0.04090017 36.46638917 1.96141905 50.67138672 6.57861328 C51.54408203 6.85125 52.41677734 7.12388672 53.31591797 7.40478516 C55.39609814 8.05627016 57.47182003 8.72196808 59.54638672 9.39111328 C58.55638672 10.05111328 57.56638672 10.71111328 56.54638672 11.39111328 C54.86265562 10.76880161 53.19836765 10.09338192 51.54638672 9.39111328 C49.28342265 9.10990086 47.0100801 8.9040644 44.73388672 8.76611328 C43.57244141 8.69134766 42.41099609 8.61658203 41.21435547 8.53955078 C40.33392578 8.49056641 39.45349609 8.44158203 38.54638672 8.39111328 C38.54638672 7.73111328 38.54638672 7.07111328 38.54638672 6.39111328 C37.48677734 6.25833984 36.42716797 6.12556641 35.33544922 5.98876953 C33.94740393 5.81057453 32.55938441 5.63217868 31.17138672 5.45361328 C30.47271484 5.36660156 29.77404297 5.27958984 29.05419922 5.18994141 C23.77294922 4.50439453 23.77294922 4.50439453 21.54638672 3.39111328 C20.16788766 3.31935383 18.78596098 3.30718716 17.40576172 3.32861328 C16.17019531 3.34021484 16.17019531 3.34021484 14.90966797 3.35205078 C13.18310196 3.37785894 11.45653937 3.40389635 9.72998047 3.43017578 C5.18690616 3.47256839 1.03463086 3.19156446 -3.45361328 2.39111328 C-3.78361328 2.72111328 -4.11361328 3.05111328 -4.45361328 3.39111328 C-6.69982505 3.60279816 -8.9512461 3.76027037 -11.20361328 3.89111328 C-16.23233815 4.18067292 -16.23233815 4.18067292 -21.19970703 4.94970703 C-24.13763641 5.52507275 -26.5480109 4.99926262 -29.45361328 4.39111328 C-29.78361328 5.38111328 -30.11361328 6.37111328 -30.45361328 7.39111328 C-34.38042029 9.43861042 -38.56591218 10.08966615 -42.89111328 10.89111328 C-48.3138739 11.89796288 -53.57821618 12.90984811 -58.51611328 15.45361328 C-60.79412984 16.55587936 -62.96659237 16.9766098 -65.45361328 17.39111328 C-65.78361328 18.38111328 -66.11361328 19.37111328 -66.45361328 20.39111328 C-69.66645666 22.27691265 -71.69994911 23.39111328 -75.45361328 23.39111328 C-75.78361328 24.38111328 -76.11361328 25.37111328 -76.45361328 26.39111328 C-78.44970703 27.55908203 -78.44970703 27.55908203 -80.89111328 28.57861328 C-81.69419922 28.92279297 -82.49728516 29.26697266 -83.32470703 29.62158203 C-85.45361328 30.39111328 -85.45361328 30.39111328 -87.45361328 30.39111328 C-87.45361328 31.05111328 -87.45361328 31.71111328 -87.45361328 32.39111328 C-89.76611328 34.07861328 -89.76611328 34.07861328 -92.45361328 35.39111328 C-93.44361328 35.06111328 -94.43361328 34.73111328 -95.45361328 34.39111328 C-91.40675989 31.45492914 -87.34375783 28.54403974 -83.25634766 25.66455078 C-81.76877017 24.61373765 -80.28970013 23.55089195 -78.81298828 22.48486328 C-65.23799267 13.20131789 -48.44055556 7.03216746 -32.45361328 3.39111328 C-31.32890625 3.13217285 -30.20419922 2.87323242 -29.04541016 2.60644531 C-19.32967124 0.50621454 -9.92480863 -0.0781481 0 0 Z " fill="#391778" transform="translate(628.45361328125,379.60888671875)"/>
<path d="M0 0 C11.18947594 3.44548886 20.82345209 9.87484134 30 17 C30.85464844 17.66128906 31.70929688 18.32257813 32.58984375 19.00390625 C38.25039634 23.46082825 43.66751942 28.15697416 49 33 C48.01 33.495 48.01 33.495 47 34 C45.24622329 33.35500331 43.5221123 32.62930714 41.8125 31.875 C35.36990152 29.29218896 28.90827135 27.69599413 22.125 26.25 C21.13862549 26.03972168 20.15225098 25.82944336 19.13598633 25.61279297 C9.43417614 23.59984635 0.28580398 22.81774381 -9.625 22.8125 C-11.41744141 22.79413086 -11.41744141 22.79413086 -13.24609375 22.77539062 C-21.35328446 22.76221534 -29.02884153 23.55615971 -37 25 C-38.86978516 25.29970703 -38.86978516 25.29970703 -40.77734375 25.60546875 C-52.16690373 27.7031751 -63.03222473 31.33706067 -74 35 C-74 34.34 -74 33.68 -74 33 C-72.35064453 32.41992188 -72.35064453 32.41992188 -70.66796875 31.828125 C-69.95761475 31.57772461 -69.24726074 31.32732422 -68.51538086 31.06933594 C-66.95047862 30.51854287 -65.38487241 29.96974623 -63.81860352 29.42285156 C-59.64564833 27.9602284 -55.53665452 26.40978036 -51.4375 24.75 C-45.52252128 22.54673899 -39.44979296 22.01727763 -33.2109375 21.39453125 C-30.14731549 21.3525136 -30.14731549 21.3525136 -29 20 C-11.76217886 18.04227333 9.72307059 16.91907591 26 24 C29.20870233 24.16757757 29.20870233 24.16757757 32 24 C31.505 22.515 31.505 22.515 31 21 C30.34 20.67 29.68 20.34 29 20 C29 19.34 29 18.68 29 18 C27.35 18 25.7 18 24 18 C23.505 16.02 23.505 16.02 23 14 C22.030625 13.87625 21.06125 13.7525 20.0625 13.625 C19.051875 13.41875 18.04125 13.2125 17 13 C16.505 12.01 16.505 12.01 16 11 C14.02477154 9.95191959 12.02518491 8.9479589 10 8 C10 7.34 10 6.68 10 6 C8.68 6.33 7.36 6.66 6 7 C6 6.34 6 5.68 6 5 C4.35 4.67 2.7 4.34 1 4 C0.505 2.02 0.505 2.02 0 0 Z " fill="#351273" transform="translate(698,394)"/>
<path d="M0 0 C2.25667976 2.81560973 4.01032811 5.76917145 5.75170898 8.92382812 C13.03261207 21.88701944 23.12770481 33.3848584 36 41 C37.56621094 41.97839844 37.56621094 41.97839844 39.1640625 42.9765625 C45.2969008 46.72216274 51.52912662 49.82330574 58.25 52.375 C59.18706787 52.73283569 59.18706787 52.73283569 60.14306641 53.09790039 C69.92613997 56.62720477 79.39482482 57.35716145 89.75 57.3125 C91.60419556 57.31056641 91.60419556 57.31056641 93.49584961 57.30859375 C102.10841363 57.21774991 109.69531459 56.29849613 118 54 C118.99 54 119.98 54 121 54 C120.67 55.32 120.34 56.64 120 58 C118.60432165 58.31319144 117.20844918 58.62551788 115.8125 58.9375 C115.03519531 59.11152344 114.25789062 59.28554688 113.45703125 59.46484375 C112.64621094 59.64144531 111.83539062 59.81804688 111 60 C110.24734863 60.17329834 109.49469727 60.34659668 108.71923828 60.52514648 C105.77319716 61.03960599 103.02519026 61.12952184 100.03515625 61.1328125 C98.90529297 61.13410156 97.77542969 61.13539063 96.61132812 61.13671875 C95.44021484 61.13285156 94.26910156 61.12898437 93.0625 61.125 C91.89525391 61.12886719 90.72800781 61.13273438 89.52539062 61.13671875 C87.82866211 61.13478516 87.82866211 61.13478516 86.09765625 61.1328125 C85.07164307 61.13168457 84.04562988 61.13055664 82.98852539 61.12939453 C79.92100473 60.99657973 77.01515897 60.56609771 74 60 C74 59.34 74 58.68 74 58 C73.06800781 57.99742187 72.13601563 57.99484375 71.17578125 57.9921875 C61.48583178 57.69825577 54.64389696 55.64901485 46 51 C44.43886519 50.26791504 42.87657741 49.53827693 41.3125 48.8125 C38 47 38 47 36 44 C35.21625 43.71125 34.4325 43.4225 33.625 43.125 C30.3348061 41.7149169 29.18136926 39.79487936 27 37 C25.34338239 35.98343919 23.67888441 34.97934924 22 34 C22 33.34 22 32.68 22 32 C21.34 32 20.68 32 20 32 C18.73828125 30.6796875 18.73828125 30.6796875 17.3125 28.875 C14.64104883 25.63250153 11.78835935 22.9834593 8.515625 20.359375 C4.99988552 17.20608289 4.09362899 13.40228291 2.78125 9.05859375 C2.09222971 6.81875758 2.09222971 6.81875758 0 5 C-0.125 2.375 -0.125 2.375 0 0 Z " fill="#371678" transform="translate(541,585)"/>
<path d="M0 0 C1.79994406 2.69991609 2.38188443 3.98501209 3.03515625 7.01953125 C3.20466797 7.79490234 3.37417969 8.57027344 3.54882812 9.36914062 C3.71833984 10.17544922 3.88785156 10.98175781 4.0625 11.8125 C4.32256836 13.00456055 4.32256836 13.00456055 4.58789062 14.22070312 C6.10726735 21.25873556 7.16882412 28.01711907 7.2734375 35.23828125 C7.28601089 36.02798813 7.29858429 36.81769501 7.3115387 37.6313324 C7.74563538 71.50724311 0.96561374 98.69548056 -14 129 C-14.33 129 -14.66 129 -15 129 C-15.20086443 125.28400809 -15.1519437 124.22791555 -13 121 C-12.835 120.13375 -12.67 119.2675 -12.5 118.375 C-12.335 117.59125 -12.17 116.8075 -12 116 C-11.01 115.505 -11.01 115.505 -10 115 C-10 114.01 -10 113.02 -10 112 C-9.01 111.505 -9.01 111.505 -8 111 C-7.61250787 108.67504723 -7.28241883 106.3400417 -7 104 C-6.67 103.01 -6.34 102.02 -6 101 C-5.34 101 -4.68 101 -4 101 C-3.80083984 99.80503906 -3.80083984 99.80503906 -3.59765625 98.5859375 C-2.73177083 93.390625 -1.86588542 88.1953125 -1 83 C-0.34 83 0.32 83 1 83 C0.67 81.68 0.34 80.36 0 79 C1.485 78.505 1.485 78.505 3 78 C3.14586468 73.73578576 3.28806489 69.47146763 3.42724609 65.20703125 C3.47480543 63.76429151 3.52326989 62.32158125 3.57275391 60.87890625 C3.84282272 52.98628296 4.05183558 45.09676796 4.0859375 37.19921875 C4.09157715 35.91619873 4.0972168 34.63317871 4.10302734 33.3112793 C3.97434299 29.17538854 3.1702733 25.96592618 2 22 C1.2473547 17.67905791 0.62951229 13.3403216 0 9 C-0.12632812 8.23429687 -0.25265625 7.46859375 -0.3828125 6.6796875 C-1.11041009 2.22082019 -1.11041009 2.22082019 0 0 Z " fill="#361477" transform="translate(789,498)"/>
<path d="M0 0 C0.33 1.32 0.66 2.64 1 4 C1.60328125 4.04898437 2.2065625 4.09796875 2.828125 4.1484375 C4.02695312 4.26058594 4.02695312 4.26058594 5.25 4.375 C6.03890625 4.44460938 6.8278125 4.51421875 7.640625 4.5859375 C10.11359753 5.01993599 11.78160455 5.85613985 14 7 C15.57158878 7.42151885 17.15629082 7.7968834 18.75 8.125 C19.54921875 8.29257812 20.3484375 8.46015625 21.171875 8.6328125 C21.77515625 8.75398438 22.3784375 8.87515625 23 9 C23 9.66 23 10.32 23 11 C23.65226563 11.18175781 24.30453125 11.36351562 24.9765625 11.55078125 C37.83211679 15.24817518 37.83211679 15.24817518 41 20 C41.639375 20.12375 42.27875 20.2475 42.9375 20.375 C45 21 45 21 46.25 23.3125 C48.13845602 26.21262889 48.95818023 26.64006233 52 28 C55.71103492 29.68188188 57.32826019 31.16483221 59 35 C59.33 35.99 59.66 36.98 60 38 C60.66 38 61.32 38 62 38 C65.249751 40.70812584 67.02623767 43.69376634 68.99609375 47.34765625 C70.01003223 49.1824457 70.01003223 49.1824457 72.0625 50.9375 C74.40678558 53.43302981 75.12402042 55.70521947 76.2109375 58.90625 C77.0091678 61.02432645 77.97753571 62.86428726 79.125 64.8125 C81.518502 68.8814534 82.12268084 71.55357554 82.0625 76.1875 C82.05347656 77.08855469 82.04445313 77.98960937 82.03515625 78.91796875 C82.02355469 79.60503906 82.01195312 80.29210937 82 81 C80.37299497 78.01085122 79.25524468 74.93511877 78.14990234 71.72192383 C69.6452528 47.43499968 52.07432786 27.45557515 28.92871094 15.89501953 C15.07221562 9.46490411 0.23193591 5.79590296 -15 5 C-12.37575342 3.25050228 -10.44272784 2.34610019 -7.5 1.375 C-6.7265625 1.11460937 -5.953125 0.85421875 -5.15625 0.5859375 C-3 0 -3 0 0 0 Z " fill="#371775" transform="translate(647,439)"/>
<path d="M0 0 C1.25731934 -0.01426025 1.25731934 -0.01426025 2.54003906 -0.02880859 C3.72678223 -0.02228271 3.72678223 -0.02228271 4.9375 -0.015625 C5.64777344 -0.01336914 6.35804688 -0.01111328 7.08984375 -0.00878906 C9 0.25 9 0.25 12 2.25 C11.43410156 3.44238281 10.86820313 4.63476562 10.28515625 5.86328125 C9.54418164 7.42964531 8.80330112 8.99605388 8.0625 10.5625 C7.68931641 11.34818359 7.31613281 12.13386719 6.93164062 12.94335938 C6.57392578 13.70068359 6.21621094 14.45800781 5.84765625 15.23828125 C5.3527771 16.28302612 5.3527771 16.28302612 4.84790039 17.34887695 C0.7647835 26.50385283 1.67890486 40.07361454 5 49.3125 C10.44609411 61.24788371 18.00793174 69.85356928 30 75.25 C27 76.25 27 76.25 24.29296875 75.2109375 C9.86407276 67.84221829 9.86407276 67.84221829 8 62.25 C7.65772583 60.91893378 7.32248257 59.58599921 7 58.25 C6.34 58.25 5.68 58.25 5 58.25 C2.64901743 54.72352614 2.61795622 52.51934328 2.34375 48.40625 C2.10725762 45.95936243 2.10725762 45.95936243 0 43.25 C-0.44266073 39.18145602 -0.32410605 35.08997171 -0.3125 31 C-0.32861328 29.87980469 -0.34472656 28.75960938 -0.36132812 27.60546875 C-0.36503636 21.32371371 0.02925884 16.80334529 3 11.25 C4.18780513 7.99916491 5 5.71082889 5 2.25 C-2.92 2.58 -10.84 2.91 -19 3.25 C-19 3.91 -19 4.57 -19 5.25 C-19.60328125 5.37117188 -20.2065625 5.49234375 -20.828125 5.6171875 C-21.62734375 5.78476562 -22.4265625 5.95234375 -23.25 6.125 C-24.43335938 6.36863281 -24.43335938 6.36863281 -25.640625 6.6171875 C-28.02038186 7.15386625 -28.02038186 7.15386625 -30.046875 8.3828125 C-32.45520694 9.45211188 -33.56712842 9.11888271 -36 8.25 C-23.81075727 3.01898895 -13.36266132 0.12747769 0 0 Z " fill="#EA9E28" transform="translate(632,463.75)"/>
<path d="M0 0 C1.13643966 3.40931897 0.86747764 4.00335456 -0.4375 7.1875 C-0.86869141 8.26064453 -0.86869141 8.26064453 -1.30859375 9.35546875 C-1.65083984 10.16951172 -1.65083984 10.16951172 -2 11 C-2.99 11 -3.98 11 -5 11 C-5.33 13.31 -5.66 15.62 -6 18 C-6.66 18 -7.32 18 -8 18 C-8.28875 18.5775 -8.5775 19.155 -8.875 19.75 C-9.24625 20.4925 -9.6175 21.235 -10 22 C-10.33 22.721875 -10.66 23.44375 -11 24.1875 C-12 26 -12 26 -14 27 C-14.69437747 28.99054876 -15.35610218 30.99255385 -16 33 C-16.97004121 35.01470098 -17.96244882 37.01922047 -19 39 C-19.66 39 -20.32 39 -21 39 C-21.66 40.65 -22.32 42.3 -23 44 C-23.66 44 -24.32 44 -25 44 C-25 45.32 -25 46.64 -25 48 C-25.99 48.495 -25.99 48.495 -27 49 C-27.33 49.99 -27.66 50.98 -28 52 C-28.66 52 -29.32 52 -30 52 C-30.33 53.98 -30.66 55.96 -31 58 C-31.66 58 -32.32 58 -33 58 C-33.17438599 59.09924805 -33.17438599 59.09924805 -33.35229492 60.22070312 C-34.00816904 63.03505327 -34.91436312 64.98287436 -36.36328125 67.46875 C-36.83830078 68.28730469 -37.31332031 69.10585938 -37.80273438 69.94921875 C-38.30095703 70.79097656 -38.79917969 71.63273438 -39.3125 72.5 C-39.79912109 73.34175781 -40.28574219 74.18351563 -40.78710938 75.05078125 C-43.27813767 79.30866272 -45.87767998 83.17033517 -49 87 C-49.33 87.99 -49.66 88.98 -50 90 C-50.66 90 -51.32 90 -52 90 C-52 90.66 -52 91.32 -52 92 C-53.5 93.625 -53.5 93.625 -55 95 C-55.66 94.67 -56.32 94.34 -57 94 C-37.9566017 61.7663945 -37.9566017 61.7663945 -31.42285156 51.45068359 C-28.32709187 46.55553031 -25.34269057 41.59870656 -22.375 36.625 C-15.04281819 24.3392347 -7.51911913 12.1718972 0 0 Z " fill="#391877" transform="translate(479,485)"/>
<path d="M0 0 C0.99 0.33 1.98 0.66 3 1 C-4.24538621 12.78201101 -12.52911378 22.96833762 -22 33 C-22.7425 33.79664063 -23.485 34.59328125 -24.25 35.4140625 C-33.21586146 44.74251395 -43.42103757 51.83839359 -54.4375 58.5 C-55.28997314 59.01667236 -56.14244629 59.53334473 -57.02075195 60.06567383 C-61.25646078 62.5735109 -65.21285425 64.69229189 -70 66 C-70.33 65.34 -70.66 64.68 -71 64 C-69.68 64 -68.36 64 -67 64 C-67 62.68 -67 61.36 -67 60 C-65.68 60.33 -64.36 60.66 -63 61 C-63.495 59.515 -63.495 59.515 -64 58 C-63.01 58 -62.02 58 -61 58 C-59.65863633 57.34964186 -58.32467746 56.6837045 -57 56 C-56.34 56 -55.68 56 -55 56 C-55 55.34 -55 54.68 -55 54 C-53.68 54 -52.36 54 -51 54 C-51 53.34 -51 52.68 -51 52 C-48.69723426 49.78252188 -47.47519908 49.03239994 -44.25 48.8125 C-43.13625 48.9053125 -43.13625 48.9053125 -42 49 C-42 48.01 -42 47.02 -42 46 C-41.01 46 -40.02 46 -39 46 C-38.67 44.68 -38.34 43.36 -38 42 C-37.34 42 -36.68 42 -36 42 C-35.76152344 41.3915625 -35.52304687 40.783125 -35.27734375 40.15625 C-33.7040665 37.50044254 -32.31474998 36.83771099 -29.5625 35.5 C-26.01125742 33.76825733 -24.30910064 32.1775379 -22 29 C-21.34 29 -20.68 29 -20 29 C-20 27.68 -20 26.36 -20 25 C-18.68 24.67 -17.36 24.34 -16 24 C-15.67 22.35 -15.34 20.7 -15 19 C-14.01 18.67 -13.02 18.34 -12 18 C-11.979375 17.278125 -11.95875 16.55625 -11.9375 15.8125 C-10.69951945 12.09855836 -8.77906148 11.32393531 -5.58984375 9.26953125 C-3.72111977 8.01336916 -3.72111977 8.01336916 -3.0625 5.1875 C-3.041875 4.465625 -3.02125 3.74375 -3 3 C-2.01 3 -1.02 3 0 3 C0 2.01 0 1.02 0 0 Z " fill="#381678" transform="translate(771,627)"/>
<path d="M0 0 C66.99 0 133.98 0 203 0 C203 0.33 203 0.66 203 1 C177.87050035 1.153778 152.7409726 1.30181458 127.6113987 1.4429636 C115.94403951 1.50863214 104.27669701 1.57619932 92.609375 1.64819336 C82.44344861 1.71091816 72.27750894 1.77012429 62.11153734 1.82505554 C56.72576291 1.85428147 51.34001199 1.88530294 45.95427322 1.92053413 C40.89009734 1.95360631 35.82591731 1.98199111 30.76169395 2.00670624 C28.89840749 2.01663964 27.03512942 2.02831826 25.17186546 2.04183006 C22.63708768 2.05995618 20.10235501 2.07192739 17.5675354 2.08229065 C16.44984439 2.09249633 16.44984439 2.09249633 15.30957377 2.10290819 C10.22824242 2.11412121 10.22824242 2.11412121 8 1 C7.14349347 3.80045046 7.14349347 3.80045046 7 7 C8.31266518 8.35368596 9.64567325 9.68799596 11 11 C10.75 13.75 10.75 13.75 10 16 C5.52259125 11.00596716 3.42089358 6.27163823 0 0 Z " fill="#300A81" transform="translate(222,381)"/>
<path d="M0 0 C2 2 2 2 2.3125 5.1875 C1.89684241 10.25852258 0.69478867 14.30521133 -3 18 C-3.71408334 19.98356483 -4.38617742 21.98315437 -5 24 C-5.66 24 -6.32 24 -7 24 C-7 31.26 -7 38.52 -7 46 C-6.34 46 -5.68 46 -5 46 C-5 48.31 -5 50.62 -5 53 C-10.63051947 44.55422079 -10.02486155 33.77897018 -9 24 C-7.84436408 19.6444957 -6.16985739 15.93401907 -4 12 C-3.22632837 10.41805162 -2.45517093 8.83486902 -1.6875 7.25 C-1.130625 6.1775 -0.57375 5.105 0 4 C-7.88220808 0.05889596 -23.78728076 2.66815148 -32 5 C-34.95963825 5.99797326 -37.87838978 7.05262382 -40.78515625 8.1953125 C-43 9 -43 9 -45 9 C-45 8.01 -45 7.02 -45 6 C-39.99268654 3.1133362 -35.43665922 2.17779969 -29.8125 1.375 C-28.21453499 1.13485818 -26.61686377 0.89275104 -25.01953125 0.6484375 C-24.31932861 0.54708496 -23.61912598 0.44573242 -22.89770508 0.34130859 C-15.01129411 -1.07708875 -8.03589836 -1.43498185 0 0 Z " fill="#FDEFC4" transform="translate(643,462)"/>
<path d="M0 0 C-1.50945434 4.00528478 -3.38579091 7.71268487 -5.375 11.5 C-9.91575948 20.39045324 -13.57674025 29.92641792 -14 40 C-14.06316406 41.14855469 -14.12632812 42.29710937 -14.19140625 43.48046875 C-14.79737391 59.52266513 -10.30465539 74.75592198 -3 89 C-3 89.66 -3 90.32 -3 91 C-3.99 91 -4.98 91 -6 91 C-10.12541907 84.25046116 -12.73885847 78.9648168 -13 71 C-13.66 71 -14.32 71 -15 71 C-16.88024424 64.62514802 -17.34941993 58.81854301 -17.3125 52.1875 C-17.30976074 51.1886377 -17.30702148 50.18977539 -17.30419922 49.16064453 C-17.15396222 38.27277927 -16.5655033 26.04410727 -12 16 C-11.01 16 -10.02 16 -9 16 C-8.8453125 14.453125 -8.8453125 14.453125 -8.6875 12.875 C-7.86511984 8.23976639 -5.86289033 0 0 0 Z " fill="#FEF6D3" transform="translate(568,496)"/>
<path d="M0 0 C1.80859375 0.15625 1.80859375 0.15625 4 1 C5.59765625 3.46875 5.59765625 3.46875 7.0625 6.5 C8.45761101 9.47854807 8.45761101 9.47854807 10 12 C10.99 12.33 11.98 12.66 13 13 C13.33 14.65 13.66 16.3 14 18 C14.94875 17.979375 15.8975 17.95875 16.875 17.9375 C20 18 20 18 22 19 C22 19.66 22 20.32 22 21 C24.31 21.33 26.62 21.66 29 22 C29 22.66 29 23.32 29 24 C30.98 24 32.96 24 35 24 C35 24.66 35 25.32 35 26 C40.37967058 25.60305343 45.01348713 25.15632989 50 23 C51.0725 22.855625 52.145 22.71125 53.25 22.5625 C57.07633881 21.98854918 60.2965787 20.91358054 63.88671875 19.5234375 C66.30044647 18.92558258 67.67101622 19.21140504 70 20 C58.76029844 27.99747996 45.51794105 29.66422968 32 28 C27.63221784 26.86057857 23.92208137 25.21426816 20 23 C19.20335937 22.5771875 18.40671875 22.154375 17.5859375 21.71875 C9.36893933 16.86196758 2.59557329 9.2407845 0 0 Z " fill="#FEF3CD" transform="translate(638,515)"/>
<path d="M0 0 C0 0.66 0 1.32 0 2 C-0.66 2 -1.32 2 -2 2 C-2 2.66 -2 3.32 -2 4 C-2.66 4 -3.32 4 -4 4 C-4.33 4.99 -4.66 5.98 -5 7 C-6.890625 7.625 -6.890625 7.625 -9.25 8 C-12.06957457 8.45415966 -13.7684711 8.83756597 -16.12866211 10.4934082 C-19.83902169 12.44023492 -23.26224563 12.57828532 -27.36328125 12.73046875 C-28.55125557 12.79068962 -28.55125557 12.79068962 -29.76322937 12.85212708 C-32.27923148 12.9767342 -34.79561596 13.08237926 -37.3125 13.1875 C-39.02414858 13.26892999 -40.7357387 13.35159876 -42.44726562 13.43554688 C-46.63096949 13.63804966 -50.81511935 13.82355775 -55 14 C-55 13.34 -55 12.68 -55 12 C-58.63 11.67 -62.26 11.34 -66 11 C-66 10.34 -66 9.68 -66 9 C-66.78375 8.731875 -67.5675 8.46375 -68.375 8.1875 C-71 7 -71 7 -73 4 C-70.34304615 4.45892839 -67.92858397 5.02670059 -65.3984375 5.97265625 C-48.28730206 12.14062368 -27.61603466 11.15300029 -11 4 C-10.04609375 3.59652344 -9.0921875 3.19304688 -8.109375 2.77734375 C-1.77822581 0 -1.77822581 0 0 0 Z " fill="#FEF7D9" transform="translate(672,613)"/>
<path d="M0 0 C0 0.99 0 1.98 0 3 C0.99 3.33 1.98 3.66 3 4 C2.67 4.99 2.34 5.98 2 7 C2.66 7 3.32 7 4 7 C4.14695312 7.93972656 4.14695312 7.93972656 4.296875 8.8984375 C4.44640625 9.71570313 4.5959375 10.53296875 4.75 11.375 C4.88921875 12.18710937 5.0284375 12.99921875 5.171875 13.8359375 C5.80169732 16.17453886 5.80169732 16.17453886 8.03515625 17.13671875 C8.68355469 17.42160156 9.33195312 17.70648437 10 18 C10.6875 20.4375 10.6875 20.4375 11 23 C11.495 24.485 11.495 24.485 12 26 C12.66 26 13.32 26 14 26 C15.2890625 27.6796875 15.2890625 27.6796875 16.625 29.875 C17.29402344 30.95394531 17.29402344 30.95394531 17.9765625 32.0546875 C19 34 19 34 19 36 C19.99 36.33 20.98 36.66 22 37 C21.67 37.99 21.34 38.98 21 40 C11.36516096 28.84248885 4.30084161 16.26883116 -2 3 C-5.41903992 7.02010402 -8.01557598 11.2540746 -10.625 15.8125 C-15.56213466 24.32966439 -20.73756388 32.68087227 -26 41 C-26.66 40.67 -27.32 40.34 -28 40 C-27.690625 39.278125 -27.38125 38.55625 -27.0625 37.8125 C-26.07439461 35.19692691 -25.4712246 32.74881018 -25 30 C-24.34 30 -23.68 30 -23 30 C-23 29.34 -23 28.68 -23 28 C-22.38640625 27.58105469 -21.7728125 27.16210938 -21.140625 26.73046875 C-18.40950833 24.52264998 -17.83984075 22.62094515 -16.75 19.3125 C-16.41484375 18.31863281 -16.0796875 17.32476563 -15.734375 16.30078125 C-15.49203125 15.54152344 -15.2496875 14.78226563 -15 14 C-14.34 14 -13.68 14 -13 14 C-12.67 12.35 -12.34 10.7 -12 9 C-11.34 9 -10.68 9 -10 9 C-9.67 7.68 -9.34 6.36 -9 5 C-8.34 5 -7.68 5 -7 5 C-7 4.34 -7 3.68 -7 3 C-4.62529233 -0.08711997 -4.19087419 0 0 0 Z " fill="#361575" transform="translate(483,608)"/>
<path d="M0 0 C4.9445858 14.8337574 -1.25736083 33.25324276 -7.875 46.625 C-13.20200397 56.8485681 -20.31056062 65.39078343 -29 73 C-29.66 73 -30.32 73 -31 73 C-30.67 72.01 -30.34 71.02 -30 70 C-29.34 70 -28.68 70 -28 70 C-28 69.01 -28 68.02 -28 67 C-27.01 67 -26.02 67 -25 67 C-25 66.34 -25 65.68 -25 65 C-24.1028125 64.4121875 -24.1028125 64.4121875 -23.1875 63.8125 C-20.72484543 61.77201479 -20.08416983 59.97741822 -18.96484375 57.04296875 C-17.83701278 54.65488941 -16.37873184 52.82853752 -14.75 50.75 C-9.37828145 43.39681598 -6.8676929 34.55433978 -4 26 C-3.34 26 -2.68 26 -2 26 C-2 19.07 -2 12.14 -2 5 C-4.31 5 -6.62 5 -9 5 C-6.45523312 2.20075644 -3.92372883 0 0 0 Z " fill="#EC9D23" transform="translate(710,534)"/>
<path d="M0 0 C0.99 0 1.98 0 3 0 C5.7347596 4.99436791 5.11736123 9.94068921 4.8125 15.4375 C4.76424072 16.41219238 4.71598145 17.38688477 4.66625977 18.39111328 C4.20896925 26.15799704 3.04093848 33.47805065 1 41 C0.34 41 -0.32 41 -1 41 C-1.103125 41.886875 -1.20625 42.77375 -1.3125 43.6875 C-2.01715907 47.0826755 -2.9554566 49.21942098 -5 52 C-5.66 52 -6.32 52 -7 52 C-7 53.65 -7 55.3 -7 57 C-8.32 57.66 -9.64 58.32 -11 59 C-11 59.66 -11 60.32 -11 61 C-12.39958117 62.12649216 -13.80155587 63.25012778 -15.21484375 64.359375 C-18.03561474 66.95176847 -20.10968317 70.07097602 -22.2890625 73.20703125 C-22.85367188 73.79871094 -23.41828125 74.39039063 -24 75 C-25.32 75 -26.64 75 -28 75 C-28.33 75.99 -28.66 76.98 -29 78 C-32 80 -32 80 -34.1875 79.625 C-34.785625 79.41875 -35.38375 79.2125 -36 79 C-34.98292969 78.30777344 -34.98292969 78.30777344 -33.9453125 77.6015625 C-14.30860083 63.83954573 -3.29398128 45.90766688 1.58984375 22.58740234 C2.72112437 15.4509071 2.36232503 8.19013901 2 1 C1.34 0.67 0.68 0.34 0 0 Z " fill="#FDF1C9" transform="translate(708,533)"/>
<path d="M0 0 C-28.86978738 13.0230977 -55.80346259 14.47987101 -87 14 C-82.91371853 10.55001823 -79.59733212 10.6885816 -74.4375 10.875 C-72.73183743 10.90508923 -71.02609706 10.93100734 -69.3203125 10.953125 C-68.44407227 10.96537109 -67.56783203 10.97761719 -66.66503906 10.99023438 C-62.37359272 11.00595972 -58.09798503 10.83720757 -53.8125 10.625 C-53.04800537 10.59390137 -52.28351074 10.56280273 -51.49584961 10.53076172 C-47.79357652 10.33669586 -44.38101384 9.92088723 -40.79296875 8.96875 C-37.4758691 8.1215402 -34.88934375 7.78085156 -31.5 7.875 C-30.21609375 7.90207031 -30.21609375 7.90207031 -28.90625 7.9296875 C-28.2771875 7.95289063 -27.648125 7.97609375 -27 8 C-27 7.34 -27 6.68 -27 6 C-25.28103516 5.61908203 -25.28103516 5.61908203 -23.52734375 5.23046875 C-21.99731647 4.88316194 -20.46737295 4.53548599 -18.9375 4.1875 C-17.80924805 3.9390332 -17.80924805 3.9390332 -16.65820312 3.68554688 C-12.96372312 2.83789562 -9.5756841 1.8940432 -6.12890625 0.30078125 C-3 -1 -3 -1 0 0 Z " fill="#391677" transform="translate(700,694)"/>
<path d="M0 0 C27.72 0 55.44 0 84 0 C84 21.12 84 42.24 84 64 C69.81 64 55.62 64 41 64 C41 63.67 41 63.34 41 63 C54.86 63 68.72 63 83 63 C82.89061807 55.20130114 82.78034577 47.40271507 82.66095734 39.60417938 C82.60563733 35.97288555 82.55207125 32.34158488 82.50268555 28.71020508 C82.45508968 25.21532901 82.4027489 21.7205538 82.34705925 18.22579765 C82.31663587 16.23766177 82.29118018 14.24945191 82.26576233 12.26124573 C82.2358445 10.45949135 82.2358445 10.45949135 82.20532227 8.62133789 C82.18200584 7.02582848 82.18200584 7.02582848 82.15821838 5.39808655 C82.26771448 3.04804072 82.26771448 3.04804072 81 2 C78.4755093 1.87499848 75.97700383 1.81396462 73.45092773 1.79467773 C72.66074249 1.78477814 71.87055725 1.77487854 71.056427 1.76467896 C68.43218022 1.73297152 65.80791531 1.70827021 63.18359375 1.68359375 C61.36897803 1.66303219 59.5543672 1.64203594 57.73976135 1.62062073 C52.9541518 1.56531759 48.16849844 1.5159448 43.3828125 1.46777344 C38.50321536 1.41761843 33.62368215 1.36190112 28.74414062 1.30664062 C19.16281498 1.19895832 9.58143392 1.09753587 0 1 C0 0.67 0 0.34 0 0 Z " fill="#290869" transform="translate(346,461)"/>
<path d="M0 0 C1.30102931 4.32058242 0.72449924 7.58055464 0 12 C-0.33 12.33 -0.66 12.66 -1 13 C-2.13983809 22.15669935 -2.08792052 31.35763774 -1.75 40.5625 C-1.72373535 41.48957764 -1.6974707 42.41665527 -1.67041016 43.37182617 C-1.41311778 48.98395255 -0.48491046 52.96742881 2 58 C2.52292832 59.51310277 3.0268186 61.03311012 3.5 62.5625 C4.41094415 65.4019323 5.38235749 67.75105935 6.75 70.4375 C7.1625 71.283125 7.575 72.12875 8 73 C7.505 73.99 7.505 73.99 7 75 C1.5036749 64.84780729 -2.56044571 55.31567274 -5 44 C-5.19335938 43.19046875 -5.38671875 42.3809375 -5.5859375 41.546875 C-7.88815823 27.3860456 -5.32598005 13.13397022 0 0 Z " fill="#DEA13C" transform="translate(559,513)"/>
<path d="M0 0 C1.32 0 2.64 0 4 0 C4.66 1.98 5.32 3.96 6 6 C6.66 6 7.32 6 8 6 C8 6.66 8 7.32 8 8 C8.556875 8.226875 9.11375 8.45375 9.6875 8.6875 C12 10 12 10 14.3125 12.375 C17.36954755 15.36095342 20.23990508 17.00936151 24 19 C24 19.66 24 20.32 24 21 C25.093125 21.0825 26.18625 21.165 27.3125 21.25 C31 22 31 22 32.9375 23.9375 C34 26 34 26 34 28 C34.85464844 28.19335938 35.70929687 28.38671875 36.58984375 28.5859375 C37.69457031 28.84632813 38.79929687 29.10671875 39.9375 29.375 C41.03964844 29.63023437 42.14179687 29.88546875 43.27734375 30.1484375 C44.17582031 30.42945313 45.07429687 30.71046875 46 31 C46.495 31.99 46.495 31.99 47 33 C29.20534862 31.78672831 14.65459489 18.39456917 3 6 C0 2.41935484 0 2.41935484 0 0 Z " fill="#E79F2E" transform="translate(567,588)"/>
<path d="M0 0 C5.09075521 -0.29945619 7.84001347 0.0442201 12 3 C15.36917472 5.18996357 18.00609621 6.42944232 22 7 C22 7.66 22 8.32 22 9 C22.639375 8.938125 23.27875 8.87625 23.9375 8.8125 C28.24433844 9.07618399 31.95354941 10.57184097 36 12 C40.66746384 13.50025623 44.995487 14.25824364 49.84375 14.71484375 C52.71182118 15.09413577 55.30709904 15.96426886 58 17 C58 17.66 58 18.32 58 19 C37.2416479 17.68200939 18.48804506 9.9783897 0 1 C0 0.67 0 0.34 0 0 Z " fill="#41207A" transform="translate(553,688)"/>
<path d="M0 0 C42.24 0 84.48 0 128 0 C128 0.33 128 0.66 128 1 C87.08 1 46.16 1 4 1 C3.34 2.32 2.68 3.64 2 5 C1.34 3.35 0.68 1.7 0 0 Z " fill="#F6E7FE" transform="translate(338,444)"/>
<path d="M0 0 C2.88888402 1.31541778 5.0030518 2.77135885 7.3125 4.9375 C9.73812999 7.09594397 11.84583319 8.51812965 14.875 9.6875 C16.421875 10.3371875 16.421875 10.3371875 18 11 C18.33 11.99 18.66 12.98 19 14 C19.99 14.33 20.98 14.66 22 15 C22.33 15.66 22.66 16.32 23 17 C23.99 17.33 24.98 17.66 26 18 C26 18.66 26 19.32 26 20 C26.78375 20.0825 27.5675 20.165 28.375 20.25 C29.24125 20.4975 30.1075 20.745 31 21 C31.2990625 21.62132812 31.598125 22.24265625 31.90625 22.8828125 C33.2554684 25.49451383 34.58098915 26.21166064 37.125 27.625 C39.3203125 28.8515625 39.3203125 28.8515625 41 30 C41 30.66 41 31.32 41 32 C36.59565714 30.45681169 32.85351309 28.1461337 29 25.5625 C28.34572021 25.12437988 27.69144043 24.68625977 27.01733398 24.23486328 C17.27565827 17.58666087 7.82878775 9.8458206 0 1 C0 0.67 0 0.34 0 0 Z " fill="#330A82" transform="translate(512,656)"/>
<path d="M0 0 C1.25731934 -0.01426025 1.25731934 -0.01426025 2.54003906 -0.02880859 C3.72678223 -0.02228271 3.72678223 -0.02228271 4.9375 -0.015625 C5.64777344 -0.01336914 6.35804688 -0.01111328 7.08984375 -0.00878906 C9 0.25 9 0.25 12 2.25 C9.69 6.87 7.38 11.49 5 16.25 C4 13.25 4 13.25 7 3.25 C-1.58 3.25 -10.16 3.25 -19 3.25 C-19 3.91 -19 4.57 -19 5.25 C-19.60328125 5.37117188 -20.2065625 5.49234375 -20.828125 5.6171875 C-21.62734375 5.78476562 -22.4265625 5.95234375 -23.25 6.125 C-24.43335938 6.36863281 -24.43335938 6.36863281 -25.640625 6.6171875 C-28.02038186 7.15386625 -28.02038186 7.15386625 -30.046875 8.3828125 C-32.45520694 9.45211188 -33.56712842 9.11888271 -36 8.25 C-23.81075727 3.01898895 -13.36266132 0.12747769 0 0 Z " fill="#E0A039" transform="translate(632,463.75)"/>
<path d="M0 0 C-9.20244898 6.54789639 -18.24168903 8.24352458 -29.375 8.3125 C-30.13603027 8.31805908 -30.89706055 8.32361816 -31.68115234 8.3293457 C-36.15711811 8.27168351 -39.78593295 7.67893782 -44 6 C-39.02662138 4.36751694 -33.78904213 5.0320496 -28.62890625 5.16015625 C-25.16095844 5.00710366 -23.10654797 4.42542131 -20 3 C-18.39125 2.7834375 -18.39125 2.7834375 -16.75 2.5625 C-12.92366119 1.98854918 -9.7034213 0.91358054 -6.11328125 -0.4765625 C-3.69955353 -1.07441742 -2.32898378 -0.78859496 0 0 Z " fill="#FCEDC0" transform="translate(708,535)"/>
<path d="M0 0 C-0.33 1.32 -0.66 2.64 -1 4 C-2.39567835 4.31319144 -3.79155082 4.62551788 -5.1875 4.9375 C-5.96480469 5.11152344 -6.74210938 5.28554688 -7.54296875 5.46484375 C-8.35378906 5.64144531 -9.16460938 5.81804688 -10 6 C-10.74830078 6.17402344 -11.49660156 6.34804688 -12.26757812 6.52734375 C-15.29028789 7.0502142 -18.10862517 7.11276539 -21.17578125 7.09765625 C-22.33271484 7.09443359 -23.48964844 7.09121094 -24.68164062 7.08789062 C-25.87982422 7.07951172 -27.07800781 7.07113281 -28.3125 7.0625 C-29.53001953 7.05798828 -30.74753906 7.05347656 -32.00195312 7.04882812 C-35.00135226 7.03706578 -38.00065089 7.02062826 -41 7 C-37.37474511 4.58316341 -34.62903404 4.7152167 -30.4375 4.625 C-22.22738508 4.31870574 -14.5935235 2.79083155 -6.6328125 0.83984375 C-3 0 -3 0 0 0 Z " fill="#310B77" transform="translate(662,639)"/>
<path d="M0 0 C17.50725625 2.71664321 31.44754355 14.23717747 44 26 C43.34 26.66 42.68 27.32 42 28 C40.5 26.625 40.5 26.625 39 25 C39 24.34 39 23.68 39 23 C38.360625 22.87625 37.72125 22.7525 37.0625 22.625 C36.0415625 22.315625 36.0415625 22.315625 35 22 C34.505 21.01 34.505 21.01 34 20 C33.401875 19.71125 32.80375 19.4225 32.1875 19.125 C30 18 30 18 28.3125 16.1875 C24.96019987 13.01640528 21.06955815 11.12418062 17 9 C16.030625 8.46375 15.06125 7.9275 14.0625 7.375 C10.48091652 5.76694211 6.87647591 4.79857691 3.07421875 3.84375 C2.38972656 3.5653125 1.70523438 3.286875 1 3 C0.67 2.01 0.34 1.02 0 0 Z " fill="#381973" transform="translate(728,440)"/>
<path d="M0 0 C16.5 0 33 0 50 0 C50 0.33 50 0.66 50 1 C44.34017703 1.16740321 38.68021782 1.32798446 33.02001953 1.48217773 C31.09353392 1.53562804 29.16709958 1.59095971 27.24072266 1.64819336 C24.4756984 1.73001986 21.71056186 1.80513291 18.9453125 1.87890625 C18.0806839 1.90594131 17.2160553 1.93297638 16.32522583 1.96083069 C10.22774341 2.11387171 10.22774341 2.11387171 8 1 C7.14349347 3.80045046 7.14349347 3.80045046 7 7 C8.31266518 8.35368596 9.64567325 9.68799596 11 11 C10.75 13.75 10.75 13.75 10 16 C5.52259125 11.00596716 3.42089358 6.27163823 0 0 Z " fill="#330C82" transform="translate(222,381)"/>
<path d="M0 0 C3.86213878 4.48743744 6.75603916 9.41854611 9.75 14.5 C10.8116975 16.29084059 11.87419945 18.0812045 12.9375 19.87109375 C13.45570313 20.74362793 13.97390625 21.61616211 14.5078125 22.51513672 C15.83531033 24.72575075 17.18700983 26.91669394 18.5625 29.09765625 C18.93665039 29.69191406 19.31080078 30.28617188 19.69628906 30.8984375 C20.68345552 32.45741029 21.67742346 34.01207041 22.671875 35.56640625 C24 38 24 38 24 41 C22.125 40.4375 22.125 40.4375 20 39 C19.26924352 36.6859378 18.59861742 34.35171131 18 32 C17.34 31.67 16.68 31.34 16 31 C16 30.34 16 29.68 16 29 C15.01 28.67 14.02 28.34 13 28 C12.938125 27.29875 12.87625 26.5975 12.8125 25.875 C12.00372755 23.01318978 11.3448492 22.03019684 9.4375 19.875 C7 17 7 17 7 14 C6.34 14 5.68 14 5 14 C4.67 12.02 4.34 10.04 4 8 C3.34 8 2.68 8 2 8 C2 7.34 2 6.68 2 6 C1.34 6 0.68 6 0 6 C0 4.02 0 2.04 0 0 Z " fill="#381975" transform="translate(395,540)"/>
<path d="M0 0 C-0.79921875 0.44988281 -1.5984375 0.89976562 -2.421875 1.36328125 C-13.04434845 7.58465948 -21.33323901 15.28613704 -30 24 C-29.67 22.35 -29.34 20.7 -29 19 C-28.01 18.67 -27.02 18.34 -26 18 C-25.9175 17.21625 -25.835 16.4325 -25.75 15.625 C-25 13 -25 13 -22.9375 11.6875 C-22.298125 11.460625 -21.65875 11.23375 -21 11 C-21 10.34 -21 9.68 -21 9 C-20.01 9 -19.02 9 -18 9 C-17.96519531 8.11248047 -17.96519531 8.11248047 -17.9296875 7.20703125 C-16.69746157 4.28178903 -14.91538523 3.67557577 -12.08203125 2.46679688 C-11.43621094 2.20962891 -10.79039062 1.95246094 -10.125 1.6875 C-9.48691406 1.41099609 -8.84882812 1.13449219 -8.19140625 0.84960938 C-3.40353071 -1.13451024 -3.40353071 -1.13451024 0 0 Z " fill="#FEF3C9" transform="translate(598,472)"/>
<path d="M0 0 C1.79994406 2.69991609 2.38188443 3.98501209 3.03515625 7.01953125 C3.20466797 7.79490234 3.37417969 8.57027344 3.54882812 9.36914062 C3.71833984 10.17544922 3.88785156 10.98175781 4.0625 11.8125 C4.32256836 13.00456055 4.32256836 13.00456055 4.58789062 14.22070312 C8.56744675 32.65473898 8.56744675 32.65473898 5 39 C4.95101562 38.443125 4.90203125 37.88625 4.8515625 37.3125 C4.4130706 32.83685858 3.7084108 28.65529468 2.5390625 24.30078125 C1.3591904 19.26495034 0.74185765 14.11491329 0 9 C-0.12632812 8.23429687 -0.25265625 7.46859375 -0.3828125 6.6796875 C-1.11041009 2.22082019 -1.11041009 2.22082019 0 0 Z " fill="#3E1E7B" transform="translate(789,498)"/>
<path d="M0 0 C1.7015625 0.48726562 1.7015625 0.48726562 3.4375 0.984375 C8.0038142 2.12193391 12.3124463 2.29799543 17 2.25 C18.13308594 2.26160156 18.13308594 2.26160156 19.2890625 2.2734375 C23.15653869 2.2601472 26.57581636 1.949463 30.3125 0.921875 C33.80820514 0.04794871 34.77732859 -0.01553277 38 1 C32.25604545 6.22833924 26.25782354 5.49608332 18.8125 5.3125 C17.62462891 5.30283203 16.43675781 5.29316406 15.21289062 5.28320312 C6.50895624 5.16965208 6.50895624 5.16965208 3 4 C3 3.34 3 2.68 3 2 C2.01 2 1.02 2 0 2 C0 1.34 0 0.68 0 0 Z " fill="#E79B27" transform="translate(662,540)"/>
<path d="M0 0 C1.18654404 4.38677368 0.73593573 7.51079204 0 12 C-0.33 12.33 -0.66 12.66 -1 13 C-2.20518615 24.29304062 -2.11813343 35.6591908 -2 47 C-2.33 47 -2.66 47 -3 47 C-4.17346528 40.76533823 -4.25752145 34.66389262 -4.29516602 28.33422852 C-4.31230525 26.33521497 -4.35619557 24.33648906 -4.40039062 22.33789062 C-4.4539563 14.08465593 -3.47637808 7.51561703 0 0 Z " fill="#EF9917" transform="translate(559,513)"/>
<path d="M0 0 C1.04220703 -0.00064453 2.08441406 -0.00128906 3.15820312 -0.00195312 C8.06239085 0.03287326 12.74459034 0.1545005 17.5625 1.1875 C17.5625 1.5175 17.5625 1.8475 17.5625 2.1875 C16.6338916 2.21255615 15.7052832 2.2376123 14.74853516 2.26342773 C11.30814196 2.35847932 7.86792287 2.45771707 4.42773438 2.55981445 C2.93787359 2.60316589 1.44796305 2.64484084 -0.04199219 2.68481445 C-2.18179327 2.74251215 -4.32134385 2.80620755 -6.4609375 2.87109375 C-7.74919434 2.90775146 -9.03745117 2.94440918 -10.36474609 2.98217773 C-13.3502682 2.98280675 -13.3502682 2.98280675 -15.4375 4.1875 C-17.3125 4.35546875 -17.3125 4.35546875 -19.4375 4.375 C-20.489375 4.39626953 -20.489375 4.39626953 -21.5625 4.41796875 C-23.4375 4.1875 -23.4375 4.1875 -25.4375 2.1875 C-16.93660348 0.32792889 -8.67362791 -0.00524086 0 0 Z " fill="#47287C" transform="translate(686.4375,432.8125)"/>
<path d="M0 0 C0 1.65 0 3.3 0 5 C-1.32 5 -2.64 5 -4 5 C-4 5.66 -4 6.32 -4 7 C-6.90600261 8.25664978 -8.79604584 9 -12 9 C-12 9.66 -12 10.32 -12 11 C-13.98 11.33 -15.96 11.66 -18 12 C-18 12.99 -18 13.98 -18 15 C-21.63 15 -25.26 15 -29 15 C-26.18448111 13.12298741 -23.76541415 12.07896575 -20.625 10.875 C-14.46236067 8.36931148 -9.09613173 5.15303353 -3.51953125 1.57421875 C-1 0 -1 0 0 0 Z " fill="#3D1979" transform="translate(691,624)"/>
<path d="M0 0 C0.33 0 0.66 0 1 0 C1 1.98 1 3.96 1 6 C0.34 6 -0.32 6 -1 6 C-1.226875 7.051875 -1.45375 8.10375 -1.6875 9.1875 C-2.53193933 12.19394357 -3.02550324 13.0248321 -5.375 15.3125 C-8.5187266 18.53107724 -9.56506929 21.49475925 -11.0078125 25.6953125 C-12.02691584 28.06252104 -13.0673206 29.32937882 -15 31 C-15.66 30.01 -16.32 29.02 -17 28 C-16.62713867 27.40050537 -16.25427734 26.80101074 -15.87011719 26.18334961 C-14.16211159 23.43553862 -12.45604262 20.68653013 -10.75 17.9375 C-10.16347656 16.99455078 -9.57695312 16.05160156 -8.97265625 15.08007812 C-5.88576584 10.10290089 -2.86299025 5.10944547 0 0 Z " fill="#3B1A76" transform="translate(497,455)"/>
<path d="M0 0 C6.4596331 1.32505294 10.38917374 5.59409935 15 10 C14.01 10.495 14.01 10.495 13 11 C10.95228363 10.30371768 8.93501885 9.51687917 6.9375 8.6875 C1.62851236 6.56390495 -3.38742539 5.04641222 -9 4 C-9 3.67 -9 3.34 -9 3 C-5.92382812 2.70703125 -5.92382812 2.70703125 -2.84765625 2.4140625 C-2.23792969 2.27742188 -1.62820313 2.14078125 -1 2 C-0.67 1.34 -0.34 0.68 0 0 Z " fill="#391975" transform="translate(732,417)"/>
<path d="M0 0 C0.66 0.33 1.32 0.66 2 1 C-2.95 9.25 -7.9 17.5 -13 26 C-14.06484722 21.7406111 -14.0097548 20.71804639 -12 17 C-11.01 16.67 -10.02 16.34 -9 16 C-8.67 13.69 -8.34 11.38 -8 9 C-7.34 9 -6.68 9 -6 9 C-5.67 7.68 -5.34 6.36 -5 5 C-4.01 5 -3.02 5 -2 5 C-2 3.68 -2 2.36 -2 1 C-1.34 0.67 -0.68 0.34 0 0 Z " fill="#3B1978" transform="translate(449,658)"/>
<path d="M0 0 C3.23208227 9.69624681 1.00496154 21.55583517 -2 31 C-2.33 31 -2.66 31 -3 31 C-2.7525 29.2984375 -2.7525 29.2984375 -2.5 27.5625 C-1.64572992 20.07861282 -1.92229776 12.51984993 -2 5 C-4.31 5 -6.62 5 -9 5 C-6.45523312 2.20075644 -3.92372883 0 0 0 Z " fill="#E1A84B" transform="translate(710,534)"/>
<path d="M0 0 C0.0270203 2.75006608 0.04684883 5.49986546 0.0625 8.25 C0.07087891 9.02730469 0.07925781 9.80460938 0.08789062 10.60546875 C0.09111328 11.35957031 0.09433594 12.11367188 0.09765625 12.890625 C0.10289307 13.58188477 0.10812988 14.27314453 0.11352539 14.98535156 C-0.00562029 17.09973898 -0.42381763 18.96641515 -1 21 C-1.66 21 -2.32 21 -3 21 C-3.33 21.99 -3.66 22.98 -4 24 C-4.125 17.25 -4.125 17.25 -3 15 C-2.76970044 12.62876754 -2.58880058 10.25258057 -2.4375 7.875 C-2.35371094 6.59367188 -2.26992188 5.31234375 -2.18359375 3.9921875 C-2.12300781 3.00476563 -2.06242188 2.01734375 -2 1 C-5.63 2.32 -9.26 3.64 -13 5 C-13 4.34 -13 3.68 -13 3 C-12.01 2.67 -11.02 2.34 -10 2 C-9.67 1.34 -9.34 0.68 -9 0 C-5.58777852 -1.01444422 -3.37896371 -0.95821359 0 0 Z " fill="#F49B14" transform="translate(709,539)"/>
<path d="M0 0 C1.60031344 3.20062687 0.03173691 5.72271806 -1 9 C-1.99 9 -2.98 9 -4 9 C-4 9.66 -4 10.32 -4 11 C-4.66 11 -5.32 11 -6 11 C-6 11.66 -6 12.32 -6 13 C-7.49609375 14.4375 -7.49609375 14.4375 -9.4375 16 C-12.15188238 18.14525044 -12.15188238 18.14525044 -14 21 C-14.66 21 -15.32 21 -16 21 C-16.20625 21.639375 -16.4125 22.27875 -16.625 22.9375 C-18 25 -18 25 -21.125 25.75 C-22.548125 25.87375 -22.548125 25.87375 -24 26 C-21.19773821 23.11016753 -18.34782005 20.44619064 -15.25 17.875 C-9.30566385 12.74433724 -4.3475412 6.5213118 0 0 Z " fill="#300F6C" transform="translate(715,598)"/>
<path d="M0 0 C4.4840341 -0.04951788 8.96792239 -0.08577526 13.45214844 -0.10986328 C14.97691623 -0.11990744 16.50166484 -0.13354531 18.02636719 -0.15087891 C20.22075138 -0.17519738 22.41488042 -0.18649889 24.609375 -0.1953125 C25.92905273 -0.20578613 27.24873047 -0.21625977 28.60839844 -0.22705078 C31.73220559 -0.0179275 33.40580238 0.33394864 36 2 C23.69138988 2.99982124 12.21126309 2.89188583 0 1 C0 0.67 0 0.34 0 0 Z " fill="#2E0C73" transform="translate(618,380)"/>
<path d="M0 0 C2 3 2 3 1.7578125 5.48046875 C1.54898438 6.37378906 1.34015625 7.26710938 1.125 8.1875 C0.92132812 9.08855469 0.71765625 9.98960937 0.5078125 10.91796875 C0.25644531 11.94857422 0.25644531 11.94857422 0 13 C-0.99 13 -1.98 13 -3 13 C-3.144375 13.928125 -3.28875 14.85625 -3.4375 15.8125 C-4 19 -4 19 -5 22 C-5.66 22 -6.32 22 -7 22 C-7.12375 22.804375 -7.2475 23.60875 -7.375 24.4375 C-7.684375 25.7059375 -7.684375 25.7059375 -8 27 C-8.66 27.33 -9.32 27.66 -10 28 C-11 25 -11 25 -9.453125 21.5234375 C-8.72677051 20.13639525 -7.99192973 18.75377385 -7.25 17.375 C-4.28005486 11.67661046 -1.77190595 6.20167081 0 0 Z " fill="#3D1B78" transform="translate(727,571)"/>
<path d="M0 0 C0.99 0.33 1.98 0.66 3 1 C-1.98404168 7.03331362 -7.41915303 12.5184171 -13 18 C-13.61328125 16.171875 -13.61328125 16.171875 -14 14 C-12.1875 11.25 -12.1875 11.25 -10 9 C-9.34 9 -8.68 9 -8 9 C-8 8.34 -8 7.68 -8 7 C-2.52380952 2 -2.52380952 2 0 2 C0 1.34 0 0.68 0 0 Z " fill="#42237C" transform="translate(573,458)"/>
<path d="M0 0 C0.33 0.99 0.66 1.98 1 3 C0.46890625 3.59167969 -0.0621875 4.18335938 -0.609375 4.79296875 C-1.66898438 5.97826172 -1.66898438 5.97826172 -2.75 7.1875 C-3.4821875 8.00476563 -4.214375 8.82203125 -4.96875 9.6640625 C-7.11013065 12.06216226 -7.11013065 12.06216226 -9.25 15.0625 C-9.8275 15.701875 -10.405 16.34125 -11 17 C-12.32 17 -13.64 17 -15 17 C-15.33 17.99 -15.66 18.98 -16 20 C-19 22 -19 22 -21.1875 21.625 C-22.0846875 21.315625 -22.0846875 21.315625 -23 21 C-22.32195313 20.53851562 -21.64390625 20.07703125 -20.9453125 19.6015625 C-13.09247924 14.09805332 -5.37044121 8.05566181 0 0 Z " fill="#FEEEC1" transform="translate(695,591)"/>
<path d="M0 0 C1.46373047 0.02707031 1.46373047 0.02707031 2.95703125 0.0546875 C3.69308594 0.07789063 4.42914062 0.10109375 5.1875 0.125 C-2.82507739 4.61204334 -10.58225745 4.43213834 -19.5625 4.375 C-21.40908203 4.38660156 -21.40908203 4.38660156 -23.29296875 4.3984375 C-24.46988281 4.39585937 -25.64679687 4.39328125 -26.859375 4.390625 C-27.93026367 4.38836914 -29.00115234 4.38611328 -30.10449219 4.38378906 C-32.8125 4.125 -32.8125 4.125 -35.8125 2.125 C-34.71578979 2.14071045 -34.71578979 2.14071045 -33.59692383 2.15673828 C-30.27298441 2.19840289 -26.94910005 2.22435956 -23.625 2.25 C-21.89926758 2.27513672 -21.89926758 2.27513672 -20.13867188 2.30078125 C-19.02685547 2.30722656 -17.91503906 2.31367187 -16.76953125 2.3203125 C-15.23776245 2.33602295 -15.23776245 2.33602295 -13.67504883 2.35205078 C-8.76936644 1.96294335 -5.07935336 -0.12239406 0 0 Z " fill="#E0A138" transform="translate(650.8125,618.875)"/>
<path d="M0 0 C-8.10370018 2.60966616 -17.97236486 0.04092419 -26 -2 C-26 -2.66 -26 -3.32 -26 -4 C-18.01335215 -6.66221595 -7.62915494 -2.89381739 0 0 Z " fill="#320F73" transform="translate(727,439)"/>
<path d="M0 0 C0.33 0 0.66 0 1 0 C1.24234375 1.02738281 1.4846875 2.05476562 1.734375 3.11328125 C4.23769914 13.53770309 7.08368369 23.41318321 12 33 C12 33.66 12 34.32 12 35 C11.01 35 10.02 35 9 35 C7.25508061 32.38262091 6.56070827 30.9105171 5.78125 27.98046875 C5.57113281 27.20509766 5.36101563 26.42972656 5.14453125 25.63085938 C4.93183594 24.82455078 4.71914063 24.01824219 4.5 23.1875 C4.07438873 21.59726154 3.64733349 20.00740875 3.21875 18.41796875 C3.01491699 17.65871094 2.81108398 16.89945313 2.60107422 16.1171875 C2.08276475 14.29152554 1.47519707 12.49163784 0.8515625 10.69921875 C-0.32725101 6.96270437 -0.13433591 3.89574137 0 0 Z " fill="#F9DD9E" transform="translate(553,552)"/>
<path d="M0 0 C7.53696859 7.09130436 14.60665518 17.7670375 17 28 C16.58984375 30.27734375 16.58984375 30.27734375 16 32 C13.87491756 28.81237635 13.4979837 26.73487777 13 23 C12.34 23 11.68 23 11 23 C10.89300781 22.27683594 10.78601563 21.55367188 10.67578125 20.80859375 C9.943791 17.76639151 8.83943744 15.70978202 7.1875 13.0625 C6.65253906 12.19753906 6.11757813 11.33257812 5.56640625 10.44140625 C4.28128608 8.43841347 2.97037884 6.46261357 1.625 4.5 C0 2 0 2 0 0 Z " fill="#402274" transform="translate(772,467)"/>
<path d="M0 0 C-1.539856 4.07563878 -3.43851642 7.88099952 -5.4375 11.75 C-8.14413852 17.05705214 -10.32347293 22.28008411 -12 28 C-12.33 28 -12.66 28 -13 28 C-12.67 24.04 -12.34 20.08 -12 16 C-11.01 16 -10.02 16 -9 16 C-8.896875 14.96875 -8.79375 13.9375 -8.6875 12.875 C-7.86511984 8.23976639 -5.86289033 0 0 0 Z " fill="#FEEFBD" transform="translate(568,496)"/>
<path d="M0 0 C2.83685756 1.30979638 5.08843357 2.75638873 7.4375 4.8125 C8.35595703 5.61494141 8.35595703 5.61494141 9.29296875 6.43359375 C10.66466459 7.69228947 11.96963733 9.02350607 13.25 10.375 C17.46688306 14.40020656 22.24392041 17.64325731 27 21 C26.34 21.66 25.68 22.32 25 23 C6.70081967 8.71106557 6.70081967 8.71106557 0 0 Z " fill="#31146C" transform="translate(512,656)"/>
<path d="M0 0 C0.33 0 0.66 0 1 0 C1.01981934 0.5983667 1.03963867 1.1967334 1.06005859 1.81323242 C1.44886982 12.99746244 1.86022295 23.98949676 4 35 C3.01 35.495 3.01 35.495 2 36 C-1.13691307 27.96775791 -1.22467078 20.90318039 -0.6875 12.375 C-0.62626953 11.18003906 -0.56503906 9.98507812 -0.50195312 8.75390625 C-0.35015569 5.83472478 -0.18253686 2.917393 0 0 Z " fill="#573B86" transform="translate(532,535)"/>
<path d="M0 0 C2 2 2 2 2.24291992 4.07543945 C2.23881104 4.91292725 2.23470215 5.75041504 2.23046875 6.61328125 C2.22853516 7.53173828 2.22660156 8.45019531 2.22460938 9.39648438 C2.21236328 10.35876953 2.20011719 11.32105469 2.1875 12.3125 C2.18685547 13.26318359 2.18621094 14.21386719 2.18554688 15.19335938 C2.15771666 19.61836294 1.9699385 23.66696302 1 28 C0.67 28 0.34 28 0 28 C-1.36712849 18.5820037 -0.66893651 9.4474418 0 0 Z " fill="#2E0875" transform="translate(530,532)"/>
<path d="M0 0 C1 2 1 2 0.3125 4.8125 C-1.92919617 10.25661927 -4.81390812 13.26289595 -10 16 C-10.33 15.01 -10.66 14.02 -11 13 C-9.25705526 10.6318365 -7.51620995 8.49300095 -5.5625 6.3125 C-5.03333984 5.70599609 -4.50417969 5.09949219 -3.95898438 4.47460938 C-2.64838952 2.97509995 -1.32533582 1.48649666 0 0 Z " fill="#391679" transform="translate(517,429)"/>
<path d="M0 0 C3 1 3 1 4.5 3.875 C4.995 4.90625 5.49 5.9375 6 7 C6.53625 7.53625 7.0725 8.0725 7.625 8.625 C9.3168346 10.3168346 9.59941561 11.67661054 10 14 C10.66 14 11.32 14 12 14 C13.49821059 17.37097383 14 19.20442119 14 23 C10.33713344 18.72095028 7.56493366 14.10248739 4.75 9.25 C4.06164062 8.08017578 4.06164062 8.08017578 3.359375 6.88671875 C0 1.13778832 0 1.13778832 0 0 Z " fill="#3A1A77" transform="translate(232,397)"/>
<path d="M0 0 C-0.33 1.32 -0.66 2.64 -1 4 C-6.73303505 5.57300962 -11.15659442 6.24327778 -17 5 C-17 4.34 -17 3.68 -17 3 C-14.73000175 2.49622232 -12.45896997 1.99709981 -10.1875 1.5 C-8.29064453 1.08234375 -8.29064453 1.08234375 -6.35546875 0.65625 C-3 0 -3 0 0 0 Z " fill="#421D81" transform="translate(662,639)"/>
<path d="M0 0 C0.99 0.33 1.98 0.66 3 1 C-10.95841826 10.28821851 -10.95841826 10.28821851 -17 12 C-17.99 11.67 -18.98 11.34 -20 11 C-19.45730469 10.66226563 -18.91460938 10.32453125 -18.35546875 9.9765625 C-17.64003906 9.53054688 -16.92460938 9.08453125 -16.1875 8.625 C-15.47980469 8.18414063 -14.77210938 7.74328125 -14.04296875 7.2890625 C-12.34567961 6.21811524 -10.66985642 5.11323761 -9 4 C-7 3.33333333 -5 2.66666667 -3 2 C-2.01 1.34 -1.02 0.68 0 0 Z " fill="#E3A137" transform="translate(676,607)"/>
<path d="M0 0 C5.39882424 4.59474404 10.71333087 9.27676273 16 14 C15.01 14.495 15.01 14.495 14 15 C10.4375 13.75 10.4375 13.75 7 12 C6.67 11.01 6.34 10.02 6 9 C5.175 8.38125 4.35 7.7625 3.5 7.125 C0.68075768 4.72864403 0.30026863 3.6032236 0 0 Z " fill="#FDEEC2" transform="translate(570,594)"/>
<path d="M0 0 C1.32 0 2.64 0 4 0 C4.66 1.98 5.32 3.96 6 6 C6.66 6 7.32 6 8 6 C8.391875 6.680625 8.78375 7.36125 9.1875 8.0625 C11.59036291 11.95679506 14.69882337 14.86162112 18 18 C15 18 15 18 12.1875 15.515625 C11.11723822 14.43471385 10.05501957 13.34579328 9 12.25 C8.46632813 11.71117187 7.93265625 11.17234375 7.3828125 10.6171875 C0 3.08745336 0 3.08745336 0 0 Z " fill="#E2A03B" transform="translate(567,588)"/>
<path d="M0 0 C2.0625 0.4375 2.0625 0.4375 4 1 C4 1.66 4 2.32 4 3 C6.31 3.33 8.62 3.66 11 4 C11 4.66 11 5.32 11 6 C12.98 6 14.96 6 17 6 C17 6.66 17 7.32 17 8 C4.93634345 7.37749815 4.93634345 7.37749815 0 4 C-0.33 3.01 -0.66 2.02 -1 1 C-0.67 0.67 -0.34 0.34 0 0 Z " fill="#FEF6D4" transform="translate(656,533)"/>
<path d="M0 0 C0 3.88433166 -1.17079686 4.67605496 -3.75 7.5 C-4.44609375 8.2734375 -5.1421875 9.046875 -5.859375 9.84375 C-7.81351246 11.81215123 -9.68219575 13.48076697 -12 15 C-12.66 15 -13.32 15 -14 15 C-14 15.66 -14 16.32 -14 17 C-14.66 16.67 -15.32 16.34 -16 16 C-11.1163329 10.09563077 -5.8280757 4.96906227 0 0 Z " fill="#E0A036" transform="translate(585,479)"/>
<path d="M0 0 C1.65 0 3.3 0 5 0 C5.18175781 0.62648438 5.36351562 1.25296875 5.55078125 1.8984375 C5.80214844 2.71570313 6.05351562 3.53296875 6.3125 4.375 C6.55613281 5.18710937 6.79976562 5.99921875 7.05078125 6.8359375 C7.91368185 9.33184629 7.91368185 9.33184629 11 11 C10.67 12.65 10.34 14.3 10 16 C5.71884147 11.22486164 2.96240159 5.63843769 0 0 Z " fill="#3C1A79" transform="translate(222,381)"/>
<path d="M0 0 C0.99 1.051875 0.99 1.051875 2 2.125 C6.9927124 7.10356874 12.56158763 11.10271443 19 14 C16 15 16 15 13.22265625 13.9609375 C12.17980469 13.43757812 11.13695312 12.91421875 10.0625 12.375 C9.02222656 11.86710938 7.98195313 11.35921875 6.91015625 10.8359375 C3.77676174 8.85916512 1.98934313 7.11583864 0 4 C0 2.68 0 1.36 0 0 Z " fill="#E6A237" transform="translate(643,525)"/>
<path d="M0 0 C6.45672576 5.51511992 6.45672576 5.51511992 9.03515625 7.81640625 C12.08279526 10.5352056 15.04370384 13.12486784 18.5 15.3125 C19.325 15.869375 20.15 16.42625 21 17 C21 17.66 21 18.32 21 19 C18.75 18.8125 18.75 18.8125 16 18 C14.62517293 16.36739286 13.29352333 14.69774938 12 13 C10.34338239 11.98343919 8.67888441 10.97934924 7 10 C7 9.34 7 8.68 7 8 C6.34 8 5.68 8 5 8 C0 2.52380952 0 2.52380952 0 0 Z " fill="#32156C" transform="translate(556,609)"/>
<path d="M0 0 C-8.8774642 3.16366014 -16.85354821 3.21407841 -26.1875 2.6875 C-27.53443102 2.62405583 -28.88143767 2.56219695 -30.22851562 2.50195312 C-33.48676123 2.35013523 -36.74335381 2.18250515 -40 2 C-40 1.67 -40 1.34 -40 1 C-39.12263184 0.97494385 -38.24526367 0.9498877 -37.34130859 0.92407227 C-34.06482809 0.82854616 -30.78850102 0.72933757 -27.51220703 0.62768555 C-26.09818835 0.58455749 -24.68412498 0.54286832 -23.27001953 0.50268555 C-21.2293556 0.4444425 -19.18891205 0.38090859 -17.1484375 0.31640625 C-15.92302246 0.27974854 -14.69760742 0.24309082 -13.43505859 0.20532227 C-10.02365058 0.07046177 -10.02365058 0.07046177 -6.80322266 -0.58227539 C-4.10352792 -0.9845727 -2.54622963 -0.88138718 0 0 Z " fill="#C8B7DE" transform="translate(660,707)"/>
<path d="M0 0 C3.52724042 3.05694169 4.98604545 5.43720451 6 10 C6.15005196 13.3411569 6.11887393 16.6583218 6 20 C4.20316097 16.56660335 2.74207323 13.03805836 1.3125 9.4375 C0.85488281 8.30183594 0.39726563 7.16617187 -0.07421875 5.99609375 C-1 3 -1 3 0 0 Z " fill="#3B167E" transform="translate(723,500)"/>
<path d="M0 0 C0 3 0 3 -2 6 C-2.66 6 -3.32 6 -4 6 C-4.2475 6.5775 -4.495 7.155 -4.75 7.75 C-6.2127149 10.38288682 -7.63826769 12.12450669 -10 14 C-12.1328125 13.60546875 -12.1328125 13.60546875 -14 13 C-12.41984377 11.39270369 -10.83574348 9.78928424 -9.25 8.1875 C-8.36828125 7.29417969 -7.4865625 6.40085937 -6.578125 5.48046875 C-4.46551149 3.44787848 -2.39205335 1.68226182 0 0 Z " fill="#381873" transform="translate(532,415)"/>
<path d="M0 0 C2.34885385 0.75498874 3.71049846 1.51096154 4.98046875 3.65625 C5.45419922 4.59984375 5.45419922 4.59984375 5.9375 5.5625 C7.49446308 8.62713867 7.49446308 8.62713867 10.75 9.9375 C11.86375 9.9684375 11.86375 9.9684375 13 10 C12.34 11.65 11.68 13.3 11 15 C6.94993501 13.64997834 5.86912713 11.00333229 3.8125 7.5 C3.44447266 6.89285156 3.07644531 6.28570313 2.69726562 5.66015625 C0 1.16638161 0 1.16638161 0 0 Z " fill="#3C1D72" transform="translate(411,692)"/>
<path d="M0 0 C0.89847656 0.15339844 1.79695312 0.30679688 2.72265625 0.46484375 C8.26420344 1.25649335 13.84974739 1.36021341 19.4375 1.5625 C20.55060547 1.60568359 21.66371094 1.64886719 22.81054688 1.69335938 C25.54025844 1.79879888 28.27005143 1.90092029 31 2 C31 2.33 31 2.66 31 3 C22.42 3.33 13.84 3.66 5 4 C5 3.34 5 2.68 5 2 C3.35 2 1.7 2 0 2 C0 1.34 0 0.68 0 0 Z " fill="#503383" transform="translate(610,641)"/>
<path d="M0 0 C-4.61778582 3.07852388 -8.71892939 3.12453729 -14.17578125 3.09765625 C-15.33271484 3.09443359 -16.48964844 3.09121094 -17.68164062 3.08789062 C-18.87982422 3.07951172 -20.07800781 3.07113281 -21.3125 3.0625 C-22.53001953 3.05798828 -23.74753906 3.05347656 -25.00195312 3.04882812 C-28.00135226 3.03706578 -31.00065089 3.02062826 -34 3 C-34 2.67 -34 2.34 -34 2 C-33.33991943 1.98018066 -32.67983887 1.96036133 -31.99975586 1.93994141 C-28.97863636 1.84406648 -25.95814992 1.73464247 -22.9375 1.625 C-21.89916016 1.5940625 -20.86082031 1.563125 -19.79101562 1.53125 C-13.9475705 1.30864257 -5.24111098 -2.09644439 0 0 Z " fill="#F8DA99" transform="translate(656,621)"/>
<path d="M0 0 C1.68609375 0.47566406 1.68609375 0.47566406 3.40625 0.9609375 C8.09969251 2.13429813 12.67988822 2.43659172 17.5 2.625 C18.32242188 2.66367187 19.14484375 2.70234375 19.9921875 2.7421875 C21.9944701 2.83531692 23.99720262 2.91868985 26 3 C26 3.33 26 3.66 26 4 C22.72966072 4.19689005 19.45872059 4.38089008 16.1875 4.5625 C14.7943457 4.64661133 14.7943457 4.64661133 13.37304688 4.73242188 C12.48037109 4.78076172 11.58769531 4.82910156 10.66796875 4.87890625 C9.84578857 4.9260376 9.0236084 4.97316895 8.17651367 5.02172852 C6 5 6 5 3 4 C3 3.34 3 2.68 3 2 C2.01 2 1.02 2 0 2 C0 1.34 0 0.68 0 0 Z " fill="#E19E33" transform="translate(662,540)"/>
<path d="M0 0 C0 0.99 0 1.98 0 3 C-3.98153927 4.16128229 -7.86563381 4.73750056 -12 5 C-13.74609375 3.515625 -13.74609375 3.515625 -15 2 C-9.92523206 0.73694665 -5.27203646 -0.27036084 0 0 Z " fill="#351177" transform="translate(663,436)"/>
<path d="M0 0 C1.32 0 2.64 0 4 0 C2.387672 4.03082 -0.46234596 6.75944137 -3.5 9.75 C-3.99886719 10.25660156 -4.49773438 10.76320313 -5.01171875 11.28515625 C-8.74658861 15 -8.74658861 15 -11 15 C-10.67 14.01 -10.34 13.02 -10 12 C-9.34 12 -8.68 12 -8 12 C-8 11.01 -8 10.02 -8 9 C-7.01 9 -6.02 9 -5 9 C-5 8.34 -5 7.68 -5 7 C-4.360625 6.54625 -3.72125 6.0925 -3.0625 5.625 C-0.7323843 3.78915127 -0.39598702 2.87090587 0 0 Z " fill="#E2A035" transform="translate(690,592)"/>
<path d="M0 0 C0.61328125 1.8203125 0.61328125 1.8203125 1 4 C-0.28189588 6.03335209 -1.62156808 8.03081154 -3 10 C-3.350625 11.093125 -3.70125 12.18625 -4.0625 13.3125 C-4.371875 14.199375 -4.68125 15.08625 -5 16 C-5.99 16.33 -6.98 16.66 -8 17 C-6.19389405 10.65660349 -3.74372266 5.43061745 0 0 Z " fill="#E3A43E" transform="translate(568,496)"/>
<path d="M0 0 C3.23861303 1.44424635 5.61969163 3.25772247 8.25 5.625 C8.95640625 6.25664062 9.6628125 6.88828125 10.390625 7.5390625 C10.92171875 8.02117187 11.4528125 8.50328125 12 9 C11.01 9.495 11.01 9.495 10 10 C7.8359375 9.22265625 7.8359375 9.22265625 5.375 8.0625 C4.55773437 7.68222656 3.74046875 7.30195313 2.8984375 6.91015625 C1.95871094 6.45962891 1.95871094 6.45962891 1 6 C1.66 5.67 2.32 5.34 3 5 C3 4.34 3 3.68 3 3 C2.01 2.67 1.02 2.34 0 2 C0 1.34 0 0.68 0 0 Z " fill="#331965" transform="translate(735,418)"/>
<path d="M0 0 C0 0.66 0 1.32 0 2 C-0.66 2 -1.32 2 -2 2 C-2 2.66 -2 3.32 -2 4 C-2.66 4 -3.32 4 -4 4 C-4.33 4.99 -4.66 5.98 -5 7 C-8.63 7 -12.26 7 -16 7 C-13.19350765 5.1290051 -10.50039527 3.76982048 -7.4375 2.375 C-6.46683594 1.92898438 -5.49617187 1.48296875 -4.49609375 1.0234375 C-2 0 -2 0 0 0 Z " fill="#FDF2D0" transform="translate(672,613)"/>
<path d="M0 0 C1.31712811 3.62210231 0.68301982 5.67244777 -0.75 9.1875 C-1.26820313 10.50814453 -1.26820313 10.50814453 -1.796875 11.85546875 C-3 14 -3 14 -6 15 C-6.33 15.66 -6.66 16.32 -7 17 C-6.46105575 12.40191871 -5.23428472 9.13215631 -2.9375 5.125 C-2.38964844 4.15820312 -1.84179688 3.19140625 -1.27734375 2.1953125 C-0.85582031 1.47085938 -0.43429687 0.74640625 0 0 Z " fill="#FDEEBF" transform="translate(703,577)"/>
<path d="M0 0 C0.33 0.66 0.66 1.32 1 2 C3.02463255 2.65213292 3.02463255 2.65213292 5 3 C5.33 5.31 5.66 7.62 6 10 C6.66 10 7.32 10 8 10 C8 11.65 8 13.3 8 15 C4.25876024 10.7045025 1.65848126 6.00099548 -1 1 C-0.67 0.67 -0.34 0.34 0 0 Z " fill="#3B1B77" transform="translate(402,675)"/>
<path d="M0 0 C4.92619554 0.6657021 9.56267442 1.96964391 14.31640625 3.37890625 C16.97861512 3.99505066 19.27883579 4.11317681 22 4 C22.33 4.66 22.66 5.32 23 6 C16.24887592 6.37352531 11.15327727 5.79694421 5 3 C4.01 2.608125 3.02 2.21625 2 1.8125 C1.34 1.544375 0.68 1.27625 0 1 C0 0.67 0 0.34 0 0 Z " fill="#ED9A1C" transform="translate(601,615)"/>
<path d="M0 0 C-1.65 0.33 -3.3 0.66 -5 1 C-5 1.66 -5 2.32 -5 3 C-5.60328125 3.12117188 -6.2065625 3.24234375 -6.828125 3.3671875 C-7.62734375 3.53476562 -8.4265625 3.70234375 -9.25 3.875 C-10.43335938 4.11863281 -10.43335938 4.11863281 -11.640625 4.3671875 C-14.02038186 4.90386625 -14.02038186 4.90386625 -16.046875 6.1328125 C-18.45520694 7.20211188 -19.56712842 6.86888271 -22 6 C-19.56292162 5.0197729 -17.12536055 4.04077829 -14.6875 3.0625 C-13.99720703 2.78470703 -13.30691406 2.50691406 -12.59570312 2.22070312 C-3.97821465 -1.23461834 -3.97821465 -1.23461834 0 0 Z " fill="#E2A849" transform="translate(618,466)"/>
<path d="M0 0 C0.33 0 0.66 0 1 0 C1.01981934 0.65073486 1.03963867 1.30146973 1.06005859 1.97192383 C1.15529299 4.91919151 1.26497818 7.86574885 1.375 10.8125 C1.4059375 11.83666016 1.436875 12.86082031 1.46875 13.91601562 C1.50742187 14.89892578 1.54609375 15.88183594 1.5859375 16.89453125 C1.6173584 17.80050049 1.6487793 18.70646973 1.68115234 19.63989258 C1.86027919 22.26525392 1.86027919 22.26525392 4 25 C3.625 27.1875 3.625 27.1875 3 29 C0.4083673 25.25453775 -0.36579572 22.80126654 -0.29296875 18.26171875 C-0.28330078 17.19501953 -0.27363281 16.12832031 -0.26367188 15.02929688 C-0.23853516 13.92650391 -0.21339844 12.82371094 -0.1875 11.6875 C-0.17396484 10.56537109 -0.16042969 9.44324219 -0.14648438 8.28710938 C-0.1112138 5.52424771 -0.06192235 2.76237171 0 0 Z " fill="#F39A16" transform="translate(631,485)"/>
<path d="M0 0 C0.99 0 1.98 0 3 0 C3.33 0.66 3.66 1.32 4 2 C4.99 2.33 5.98 2.66 7 3 C7.33 4.65 7.66 6.3 8 8 C9.32 8.33 10.64 8.66 12 9 C12 9.66 12 10.32 12 11 C6.41133327 9.6451717 3.34726118 5.38906005 0 1 C0 0.67 0 0.34 0 0 Z " fill="#FCEBBA" transform="translate(644,525)"/>
<path d="M0 0 C0 4.88159657 -3.37122924 7.34128777 -6.625 10.75 C-9 13 -9 13 -11 14 C-11.33 14.66 -11.66 15.32 -12 16 C-12.66 15.34 -13.32 14.68 -14 14 C-9.38 9.38 -4.76 4.76 0 0 Z " fill="#FBF0FE" transform="translate(575,460)"/>
<path d="M0 0 C1.2961068 4.35608826 0.77842494 7.54174808 0 12 C-0.99 13.485 -0.99 13.485 -2 15 C-2.66 15 -3.32 15 -4 15 C-3.43179252 9.54520815 -2.05362055 5.08940744 0 0 Z " fill="#E1A037" transform="translate(559,513)"/>
<path d="M0 0 C-6.625 3 -6.625 3 -10 3 C-10 3.66 -10 4.32 -10 5 C-12.31 5 -14.62 5 -17 5 C-12.38063896 0.5296506 -6.28705691 -2.09568564 0 0 Z " fill="#320A7F" transform="translate(634,424)"/>
<path d="M0 0 C4.43458973 1.3937282 6.87378374 3.60582235 10 7 C9.01 7.495 9.01 7.495 8 8 C8 7.34 8 6.68 8 6 C7.34 6 6.68 6 6 6 C5.67 6.99 5.34 7.98 5 9 C2.03 9 -0.94 9 -4 9 C-4 8.67 -4 8.34 -4 8 C-1.36 7.67 1.28 7.34 4 7 C2.99257646 3.97772938 2.20999438 3.11390767 0 1 C0 0.67 0 0.34 0 0 Z " fill="#2F0D6E" transform="translate(726,411)"/>
<path d="M0 0 C0.33 0.66 0.66 1.32 1 2 C-2.96 2.66 -6.92 3.32 -11 4 C-11.33 3.01 -11.66 2.02 -12 1 C-8.0186217 -0.3271261 -4.14954773 -0.06915913 0 0 Z " fill="#3A1879" transform="translate(664,416)"/>
<path d="M0 0 C1.485 0.99 1.485 0.99 3 2 C3 2.66 3 3.32 3 4 C3.93585937 4.10634766 3.93585937 4.10634766 4.890625 4.21484375 C7 5 7 5 8.046875 7.06640625 C8.27890625 7.89011719 8.5109375 8.71382812 8.75 9.5625 C8.99234375 10.38878906 9.2346875 11.21507812 9.484375 12.06640625 C9.65453125 12.70449219 9.8246875 13.34257813 10 14 C8.0625 13.1875 8.0625 13.1875 6 12 C5.22227595 9.66682784 4.57584432 7.38564077 4 5 C3.34 5 2.68 5 2 5 C1.34 3.35 0.68 1.7 0 0 Z " fill="#EE9C21" transform="translate(635,517)"/>
<path d="M0 0 C0.66 0 1.32 0 2 0 C1.35740457 2.89492486 0.46450574 5.44888438 -0.8125 8.125 C-1.12832031 8.80820312 -1.44414063 9.49140625 -1.76953125 10.1953125 C-3.24317271 12.35665331 -4.60630441 13.02646343 -7 14 C-6.731875 13.505 -6.46375 13.01 -6.1875 12.5 C-4.56124507 9.0763054 -3.30484829 5.55867715 -2 2 C-1.34 2 -0.68 2 0 2 C0 1.34 0 0.68 0 0 Z " fill="#F29916" transform="translate(571,494)"/>
<path d="M0 0 C0.66 0.99 1.32 1.98 2 3 C0.7143824 5.14967221 -0.57807905 7.29466349 -1.875 9.4375 C-2.23980469 10.04916016 -2.60460937 10.66082031 -2.98046875 11.29101562 C-5.7734375 15.88671875 -5.7734375 15.88671875 -8 17 C-7.37240135 14.07120629 -6.41377341 11.63904371 -5 9 C-4.34 9 -3.68 9 -3 9 C-2.814375 8.1646875 -2.814375 8.1646875 -2.625 7.3125 C-1.94023145 4.77885636 -1.00866237 2.42078968 0 0 Z " fill="#3C1D72" transform="translate(432,684)"/>
<path d="M0 0 C-4.58921384 3.15654048 -8.29370646 5.57202798 -14 6 C-13.34 5.01 -12.68 4.02 -12 3 C-11.34 3 -10.68 3 -10 3 C-10 2.34 -10 1.68 -10 1 C-6.16112237 -0.48320272 -3.93795909 -1.22419163 0 0 Z " fill="#FCE6B4" transform="translate(708,535)"/>
<path d="M0 0 C0.66 0.33 1.32 0.66 2 1 C1.09066991 2.27609323 0.17217147 3.54565553 -0.75 4.8125 C-1.26046875 5.52019531 -1.7709375 6.22789062 -2.296875 6.95703125 C-4.02482358 9.02977691 -5.78526476 10.47375854 -8 12 C-7.41463247 8.33939179 -5.916761 6.45464836 -3.4375 3.75 C-2.79683594 3.04359375 -2.15617188 2.3371875 -1.49609375 1.609375 C-0.75552734 0.81273437 -0.75552734 0.81273437 0 0 Z " fill="#FDFCE9" transform="translate(695,594)"/>
<path d="M0 0 C0.66 0 1.32 0 2 0 C1.68950274 1.43793392 1.3765224 2.8753318 1.0625 4.3125 C0.88847656 5.11300781 0.71445312 5.91351562 0.53515625 6.73828125 C0 9 0 9 -1 12 C-3.0625 12.6875 -3.0625 12.6875 -5 13 C-5 12.34 -5 11.68 -5 11 C-4.34 11 -3.68 11 -3 11 C-2.87625 9.9275 -2.7525 8.855 -2.625 7.75 C-2.10356064 4.62136385 -1.59911746 2.66519576 0 0 Z " fill="#321173" transform="translate(788,588)"/>
<path d="M0 0 C0.33 0 0.66 0 1 0 C0.25 6.75 0.25 6.75 -2 9 C-2.39764263 10.98821313 -2.73775349 12.98944339 -3 15 C-3.33 15 -3.66 15 -4 15 C-4.16682272 10.07872966 -4.24828052 6.49656104 -2 2 C-1.34 2 -0.68 2 0 2 C0 1.34 0 0.68 0 0 Z " fill="#F19811" transform="translate(563,510)"/>
<path d="M0 0 C0.99 0.33 1.98 0.66 3 1 C-0.49205938 4.59476701 -4.04033675 7.92026191 -8 11 C-8.66 11 -9.32 11 -10 11 C-10 10.34 -10 9.68 -10 9 C-6.53846154 6 -6.53846154 6 -4 6 C-4 5.01 -4 4.02 -4 3 C-3.01 2.67 -2.02 2.34 -1 2 C-0.67 1.34 -0.34 0.68 0 0 Z " fill="#3B1B73" transform="translate(585,448)"/>
<path d="M0 0 C0.94101562 0.26425781 1.88203125 0.52851563 2.8515625 0.80078125 C5.375 1.6875 5.375 1.6875 8.375 3.6875 C4.88357495 4.85130835 3.96121742 4.45062657 0.5625 3.3125 C-3.16080493 2.11864381 -6.73604292 1.19920488 -10.625 0.6875 C-10.625 0.3575 -10.625 0.0275 -10.625 -0.3125 C-6.6105037 -1.40006354 -3.97602658 -1.15556695 0 0 Z " fill="#391973" transform="translate(679.625,386.3125)"/>
<path d="M0 0 C0.33 0.66 0.66 1.32 1 2 C-4.2247545 5.52103021 -6.68824858 7.13721199 -13 7 C-10.63456284 4.63456284 -8.42932795 3.72458677 -5.375 2.375 C-4.37210938 1.92898438 -3.36921875 1.48296875 -2.3359375 1.0234375 C-1.56507813 0.68570313 -0.79421875 0.34796875 0 0 Z " fill="#EEDFF7" transform="translate(711,688)"/>
<path d="M0 0 C0 3 0 3 -1.6796875 5.04296875 C-2.76636719 6.10451172 -2.76636719 6.10451172 -3.875 7.1875 C-4.95394531 8.26064453 -4.95394531 8.26064453 -6.0546875 9.35546875 C-8 11 -8 11 -10 11 C-9.8125 9.1875 -9.8125 9.1875 -9 7 C-7.36935236 5.94228261 -5.69719127 4.94726954 -4 4 C-2.63015802 2.70420353 -1.2848951 1.38007251 0 0 Z " fill="#2F116C" transform="translate(751,655)"/>
<path d="M0 0 C0.66 0.99 1.32 1.98 2 3 C1.505 3.433125 1.01 3.86625 0.5 4.3125 C-1.33218192 5.99740483 -1.33218192 5.99740483 -1 9 C-3.5 11.1875 -3.5 11.1875 -6 13 C-6.66 12.67 -7.32 12.34 -8 12 C-7.50628906 11.30132813 -7.01257813 10.60265625 -6.50390625 9.8828125 C-5.86324219 8.97273437 -5.22257813 8.06265625 -4.5625 7.125 C-3.92441406 6.22007812 -3.28632812 5.31515625 -2.62890625 4.3828125 C-1.00481862 2.12261419 -1.00481862 2.12261419 0 0 Z " fill="#E9DCF3" transform="translate(771,631)"/>
<path d="M0 0 C1.80030122 2.70045182 2.93377066 5.06677881 4.125 8.0625 C4.47820313 8.94035156 4.83140625 9.81820312 5.1953125 10.72265625 C6 13 6 13 6 15 C5.34 15 4.68 15 4 15 C1.03445441 11.92461939 0.56197989 9.44126223 0.3125 5.25 C0.24675781 4.26515625 0.18101562 3.2803125 0.11328125 2.265625 C0.07589844 1.51796875 0.03851562 0.7703125 0 0 Z " fill="#E5A746" transform="translate(634,506)"/>
<path d="M0 0 C2.9555377 2.75170751 5.11563315 5.41970299 7 9 C7 9.66 7 10.32 7 11 C5.1875 10.9375 5.1875 10.9375 3 10 C1.18721244 6.5039097 0 3.96018245 0 0 Z " fill="#EDDFF6" transform="translate(385,651)"/>
<path d="M0 0 C0.66 0 1.32 0 2 0 C0.52278578 3.45201639 -1.43794001 5.64961936 -4.125 8.25 C-4.84945312 8.95640625 -5.57390625 9.6628125 -6.3203125 10.390625 C-6.87460937 10.92171875 -7.42890625 11.4528125 -8 12 C-8.66 11.67 -9.32 11.34 -10 11 C-8.38150935 9.16053461 -6.75581169 7.32848583 -5.125 5.5 C-4.66480469 4.97535156 -4.20460938 4.45070313 -3.73046875 3.91015625 C-2.52827924 2.56858245 -1.26754054 1.28000815 0 0 Z " fill="#E3D4F0" transform="translate(760,647)"/>
<path d="M0 0 C1.90389849 2.85584773 2.69462177 4.9311762 3.625 8.1875 C4.01558594 9.53908203 4.01558594 9.53908203 4.4140625 10.91796875 C4.60742188 11.60503906 4.80078125 12.29210937 5 13 C4.34 13.66 3.68 14.32 3 15 C1.08373163 10.01770224 0.4452885 5.27315333 0 0 Z " fill="#4B2E80" transform="translate(536,571)"/>
<path d="M0 0 C0 0.99 0 1.98 0 3 C-3.96 3 -7.92 3 -12 3 C-7.97869817 0.31913211 -4.73968522 -1.57989507 0 0 Z " fill="#3F2B64" transform="translate(644,441)"/>
<path d="M0 0 C4.79016959 2.23462006 8.98745115 4.48901975 13 8 C11.35 8 9.7 8 8 8 C7.6596875 7.0409375 7.6596875 7.0409375 7.3125 6.0625 C6.14749104 3.72806339 6.14749104 3.72806339 3.375 3.25 C2.59125 3.1675 1.8075 3.085 1 3 C0.67 2.01 0.34 1.02 0 0 Z " fill="#FCEBB7" transform="translate(586,609)"/>
<path d="M0 0 C1.60031344 3.20062687 0.03173691 5.72271806 -1 9 C-2.98 9.33 -4.96 9.66 -7 10 C-6.02223933 8.51990357 -5.0427506 7.04094856 -4.0625 5.5625 C-3.51722656 4.73878906 -2.97195313 3.91507813 -2.41015625 3.06640625 C-1 1 -1 1 0 0 Z " fill="#3D1B7A" transform="translate(715,598)"/>
<path d="M0 0 C0.99 0 1.98 0 3 0 C3 2 3 2 0.8125 4.5625 C-2.01309018 7.01134483 -3.35558268 7.68762137 -7 8 C-6.34 7.01 -5.68 6.02 -5 5 C-4.34 5 -3.68 5 -3 5 C-2.67 4.01 -2.34 3.02 -2 2 C-1.34 2 -0.68 2 0 2 C0 1.34 0 0.68 0 0 Z " fill="#320982" transform="translate(427,575)"/>
<path d="M0 0 C2.31 0 4.62 0 7 0 C7 1.65 7 3.3 7 5 C6.01 4.67 5.02 4.34 4 4 C3.67 4.66 3.34 5.32 3 6 C2.01 4.02 1.02 2.04 0 0 Z " fill="#F7ECFB" transform="translate(387,526)"/>
<path d="M0 0 C0.99 0.33 1.98 0.66 3 1 C1.50902342 4.7952131 -0.75700849 6.61042731 -4 9 C-3.67 7.02 -3.34 5.04 -3 3 C-2.34 3 -1.68 3 -1 3 C-0.67 2.01 -0.34 1.02 0 0 Z " fill="#321372" transform="translate(556,474)"/>
<path d="M0 0 C1 4 1 4 0 6 C-0.66 6 -1.32 6 -2 6 C-2 7.32 -2 8.64 -2 10 C-2.99 10 -3.98 10 -5 10 C-5 10.66 -5 11.32 -5 12 C-5.66 11.67 -6.32 11.34 -7 11 C-4.69 7.37 -2.38 3.74 0 0 Z " fill="#3B1E73" transform="translate(505,443)"/>
<path d="M0 0 C1.35158203 0.15275391 1.35158203 0.15275391 2.73046875 0.30859375 C3.41753906 0.39238281 4.10460937 0.47617187 4.8125 0.5625 C1.49879 2.77164 0.4678979 2.78731553 -3.375 2.6875 C-4.27605469 2.66945313 -5.17710937 2.65140625 -6.10546875 2.6328125 C-6.79253906 2.60960937 -7.47960937 2.58640625 -8.1875 2.5625 C-8.1875 1.9025 -8.1875 1.2425 -8.1875 0.5625 C-4.98734144 -0.50421952 -3.30205706 -0.38595472 0 0 Z " fill="#3B197D" transform="translate(709.1875,434.4375)"/>
<path d="M0 0 C5.1576857 1.41836357 9.79975258 3.67391575 14 7 C14 7.66 14 8.32 14 9 C10.40241608 7.67726488 7.36262865 6.0805802 4.1875 3.9375 C3.39730469 3.41027344 2.60710938 2.88304687 1.79296875 2.33984375 C1.20128906 1.89769531 0.60960937 1.45554687 0 1 C0 0.67 0 0.34 0 0 Z " fill="#3C1E71" transform="translate(539,679)"/>
<path d="M0 0 C0.99 0.33 1.98 0.66 3 1 C0.03 5.95 0.03 5.95 -3 11 C-4.19491898 6.22032407 -3.38305011 5.1245098 -1 1 C-0.67 0.67 -0.34 0.34 0 0 Z " fill="#3F1F77" transform="translate(467,627)"/>
<path d="M0 0 C2.25245881 2.68841859 3.88213958 4.64641875 5 8 C4.34 8.66 3.68 9.32 3 10 C3 9.34 3 8.68 3 8 C2.01 8 1.02 8 0 8 C-0.79953138 4.71303767 -1.09658936 3.28976808 0 0 Z " fill="#F1E6F8" transform="translate(369,624)"/>
<path d="M0 0 C-1.3125 1.5 -1.3125 1.5 -3 3 C-3.99 3 -4.98 3 -6 3 C-8.67356157 3.28627045 -11.33365575 3.65031551 -14 4 C-11.37350692 2.24900461 -9.38191413 1.30690675 -6.4375 0.3125 C-5.65246094 0.04050781 -4.86742187 -0.23148438 -4.05859375 -0.51171875 C-2 -1 -2 -1 0 0 Z " fill="#E3D3EF" transform="translate(693,698)"/>
<path d="M0 0 C1.37562854 1.28965176 2.70766393 2.62689293 4 4 C4 4.66 4 5.32 4 6 C4.66 6 5.32 6 6 6 C6.33 7.98 6.66 9.96 7 12 C6.34 12 5.68 12 5 12 C4.16180842 10.37750059 3.3295884 8.75191503 2.5 7.125 C2.0359375 6.22007812 1.571875 5.31515625 1.09375 4.3828125 C0 2 0 2 0 0 Z " fill="#F09815" transform="translate(562,576)"/>
<path d="M0 0 C1.65 1.65 3.3 3.3 5 5 C4.67 5.99 4.34 6.98 4 8 C3.34 6.68 2.68 5.36 2 4 C1.01 4.33 0.02 4.66 -1 5 C-1.33 3.68 -1.66 2.36 -2 1 C-1.34 0.67 -0.68 0.34 0 0 Z " fill="#330A86" transform="translate(404,559)"/>
<path d="M0 0 C-2.59613267 2.13253755 -4.63067173 3.55075623 -8 4 C-8.66 3.67 -9.32 3.34 -10 3 C-10 2.34 -10 1.68 -10 1 C-6.78548731 -0.60725635 -3.56387464 -0.05748185 0 0 Z " fill="#3F1F7C" transform="translate(623,429)"/>
<path d="M0 0 C0.33 0.99 0.66 1.98 1 3 C-1.64 3 -4.28 3 -7 3 C-7 2.34 -7 1.68 -7 1 C-7.99 0.67 -8.98 0.34 -10 0 C-6.30581799 -1.231394 -3.7943739 -0.64432764 0 0 Z " fill="#300976" transform="translate(674,385)"/>
<path d="M0 0 C0.33 0.99 0.66 1.98 1 3 C-0.43359375 5.04296875 -0.43359375 5.04296875 -2.4375 7.1875 C-3.09621094 7.90292969 -3.75492188 8.61835937 -4.43359375 9.35546875 C-5.20896484 10.16951172 -5.20896484 10.16951172 -6 11 C-6.99 10.67 -7.98 10.34 -9 10 C-8.27683594 9.29423828 -8.27683594 9.29423828 -7.5390625 8.57421875 C-6.90742187 7.95160156 -6.27578125 7.32898438 -5.625 6.6875 C-4.68527344 5.76517578 -4.68527344 5.76517578 -3.7265625 4.82421875 C-1.81913393 2.91187472 -1.81913393 2.91187472 0 0 Z " fill="#FBE5AA" transform="translate(695,591)"/>
<path d="M0 0 C3.04049801 3.64859761 4.96518762 7.7444533 7 12 C6.01 12.495 6.01 12.495 5 13 C-0.74031891 4.738041 -0.74031891 4.738041 0 0 Z " fill="#3C2171" transform="translate(541,585)"/>
<path d="M0 0 C0.66 0 1.32 0 2 0 C5 5.75 5 5.75 5 8 C4.01 8 3.02 8 2 8 C-0.1519437 4.77208445 -0.20086443 3.71599191 0 0 Z " fill="#FCEBBC" transform="translate(560,579)"/>
<path d="M0 0 C0.99 0.33 1.98 0.66 3 1 C2.25 7.75 2.25 7.75 0 10 C-0.19412181 8.52168779 -0.38012131 7.04230684 -0.5625 5.5625 C-0.66691406 4.73878906 -0.77132812 3.91507813 -0.87890625 3.06640625 C-0.91886719 2.38449219 -0.95882812 1.70257812 -1 1 C-0.67 0.67 -0.34 0.34 0 0 Z " fill="#3B1C7C" transform="translate(790,576)"/>
<path d="M0 0 C2.34914492 2.34914492 2.73140357 3.95679446 3.625 7.125 C3.88539063 8.03507812 4.14578125 8.94515625 4.4140625 9.8828125 C4.70410156 10.93082031 4.70410156 10.93082031 5 12 C4.01 12.495 4.01 12.495 3 13 C2.30093058 11.40084119 1.61610532 9.79544955 0.9375 8.1875 C0.55464844 7.29417969 0.17179688 6.40085937 -0.22265625 5.48046875 C-1 3 -1 3 0 0 Z " fill="#3E1E76" transform="translate(723,500)"/>
<path d="M0 0 C0.66 0.33 1.32 0.66 2 1 C0.6062718 5.43458973 -1.60582235 7.87378374 -5 11 C-5 9.35 -5 7.7 -5 6 C-4.34 6 -3.68 6 -3 6 C-3 5.34 -3 4.68 -3 4 C-2.01 4 -1.02 4 0 4 C0 2.68 0 1.36 0 0 Z " fill="#330B82" transform="translate(503,449)"/>
<path d="M0 0 C0.80824219 0.19464844 1.61648438 0.38929688 2.44921875 0.58984375 C3.06410156 0.74582031 3.67898438 0.90179687 4.3125 1.0625 C4.3125 1.3925 4.3125 1.7225 4.3125 2.0625 C2.68786158 2.11645478 1.06271459 2.15527195 -0.5625 2.1875 C-1.46742188 2.21070313 -2.37234375 2.23390625 -3.3046875 2.2578125 C-5.6875 2.0625 -5.6875 2.0625 -7.6875 0.0625 C-4.39053895 -1.03648702 -3.28255097 -0.80874444 0 0 Z " fill="#320D75" transform="translate(605.6875,639.9375)"/>
<path d="M0 0 C0.66 0.66 1.32 1.32 2 2 C0.35 5.3 -1.3 8.6 -3 12 C-3.33 12 -3.66 12 -4 12 C-4.61528766 6.92387682 -2.61658349 4.17017994 0 0 Z " fill="#412578" transform="translate(778,615)"/>
<path d="M0 0 C3.91841827 1.30613942 6.32640809 2.83129848 9 6 C9 6.66 9 7.32 9 8 C5.125 6.25 5.125 6.25 4 4 C3.01 4 2.02 4 1 4 C0.67 2.68 0.34 1.36 0 0 Z " fill="#320A85" transform="translate(563,619)"/>
<path d="M0 0 C1.485 0.99 1.485 0.99 3 2 C3.1875 4.625 3.1875 4.625 3 7 C1.68 7 0.36 7 -1 7 C-0.67 4.69 -0.34 2.38 0 0 Z " fill="#340E78" transform="translate(730,562)"/>
<path d="M0 0 C3.15330554 0.60694155 5.18888867 1.6416665 7.75 3.5625 C8.67039062 4.24505859 8.67039062 4.24505859 9.609375 4.94140625 C10.29773438 5.46541016 10.29773438 5.46541016 11 6 C10.34 6.66 9.68 7.32 9 8 C7.49712782 6.85793642 5.99776716 5.71125043 4.5 4.5625 C3.6646875 3.92441406 2.829375 3.28632812 1.96875 2.62890625 C1.3190625 2.09136719 0.669375 1.55382812 0 1 C0 0.67 0 0.34 0 0 Z " fill="#3D2172" transform="translate(528,671)"/>
<path d="M0 0 C1 2 1 2 0.875 4.4375 C0 7 0 7 -2.5625 8.8125 C-3.366875 9.204375 -4.17125 9.59625 -5 10 C-3.66511872 6.40608886 -2.03977277 3.24509304 0 0 Z " fill="#EDE0F7" transform="translate(443,671)"/>
<path d="M0 0 C-3.96 0.99 -7.92 1.98 -12 3 C-6 -3 -6 -3 0 0 Z " fill="#FEFCE9" transform="translate(711,533)"/>
<path d="M0 0 C3.37641082 3.37641082 4.27450305 5.64517436 6 10 C5.01 10 4.02 10 3 10 C2.01 6.7 1.02 3.4 0 0 Z " fill="#340D80" transform="translate(778,478)"/>
<path d="M0 0 C0 1.66666667 0 3.33333333 0 5 C-0.66 5 -1.32 5 -2 5 C-2.33 5.99 -2.66 6.98 -3 8 C-4.32 7.67 -5.64 7.34 -7 7 C-4.69 4.69 -2.38 2.38 0 0 Z " fill="#E5D8F2" transform="translate(749,659)"/>
<path d="M0 0 C-0.33 1.65 -0.66 3.3 -1 5 C-2.32 5.33 -3.64 5.66 -5 6 C-4.625 3.5625 -4.625 3.5625 -4 1 C-2 0 -2 0 0 0 Z " fill="#351078" transform="translate(472,621)"/>
<path d="M0 0 C0.66 0.33 1.32 0.66 2 1 C-0.25 3.5625 -0.25 3.5625 -3 6 C-4.32 5.67 -5.64 5.34 -7 5 C-4.69 3.35 -2.38 1.7 0 0 Z " fill="#FCE6B1" transform="translate(679,607)"/>
<path d="M0 0 C0.66 0.33 1.32 0.66 2 1 C0.625 2.5 0.625 2.5 -1 4 C-1.66 4 -2.32 4 -3 4 C-3 4.66 -3 5.32 -3 6 C-4.65 6 -6.3 6 -8 6 C-5.38485683 3.87961365 -2.80362384 1.86908256 0 0 Z " fill="#E2A33D" transform="translate(594,473)"/>
<path d="M0 0 C0 0.99 0 1.98 0 3 C-2.5 5.1875 -2.5 5.1875 -5 7 C-5.66 6.67 -6.32 6.34 -7 6 C-5.9024777 3.00675737 -5.32317108 2.15389099 -2.375 0.75 C-1.59125 0.5025 -0.8075 0.255 0 0 Z " fill="#310783" transform="translate(523,427)"/>
<path d="M0 0 C0.598125 0.350625 1.19625 0.70125 1.8125 1.0625 C-1.41541555 3.2144437 -2.47150809 3.26336443 -6.1875 3.0625 C-5.8575 2.0725 -5.5275 1.0825 -5.1875 0.0625 C-2.1875 -0.9375 -2.1875 -0.9375 0 0 Z " fill="#310D78" transform="translate(613.1875,431.9375)"/>
<path d="M0 0 C0.763125 0.20625 1.52625 0.4125 2.3125 0.625 C-0.72275486 2.64850324 -1.88176202 2.94624018 -5.375 3.25 C-6.18324219 3.32476562 -6.99148438 3.39953125 -7.82421875 3.4765625 C-8.43910156 3.52554687 -9.05398438 3.57453125 -9.6875 3.625 C-8.7903125 3.191875 -8.7903125 3.191875 -7.875 2.75 C-1.98831301 -0.27743902 -1.98831301 -0.27743902 0 0 Z " fill="#2D0C6A" transform="translate(650.6875,418.375)"/>
<path d="M0 0 C0.66 0 1.32 0 2 0 C0.68775452 3.93673644 -0.91910327 6.22719294 -4 9 C-3.35494404 5.51669784 -2.01782732 2.90567134 0 0 Z " fill="#E2A43E" transform="translate(698,583)"/>
<path d="M0 0 C1.32 1.65 2.64 3.3 4 5 C3.01 6.485 3.01 6.485 2 8 C1.67 7.01 1.34 6.02 1 5 C0.34 5 -0.32 5 -1 5 C-0.67 3.35 -0.34 1.7 0 0 Z " fill="#3D1C7B" transform="translate(387,527)"/>
<path d="M0 0 C-4.95 2.475 -4.95 2.475 -10 5 C-10 4.01 -10 3.02 -10 2 C-3.375 -1.125 -3.375 -1.125 0 0 Z " fill="#FEEDBA" transform="translate(598,472)"/>
<path d="M0 0 C3.71599191 -0.20086443 4.77208445 -0.1519437 8 2 C8.66 2 9.32 2 10 2 C10 2.99 10 3.98 10 5 C5 3 5 3 0 1 C0 0.67 0 0.34 0 0 Z " fill="#E4D7F1" transform="translate(739,443)"/>
<path d="M0 0 C1.875 1.3125 1.875 1.3125 3.875 4.3125 C0.575 3.3225 -2.725 2.3325 -6.125 1.3125 C-2.125 -0.6875 -2.125 -0.6875 0 0 Z " fill="#463462" transform="translate(743.125,423.6875)"/>
<path d="M0 0 C-7.42857143 2.42857143 -7.42857143 2.42857143 -11 1 C-10.34 1 -9.68 1 -9 1 C-9 0.34 -9 -0.32 -9 -1 C-3.375 -2.25 -3.375 -2.25 0 0 Z " fill="#340981" transform="translate(645,421)"/>
<path d="M0 0 C3.465 1.485 3.465 1.485 7 3 C6.67 3.99 6.34 4.98 6 6 C3.5625 5.25 3.5625 5.25 1 4 C0.1875 1.875 0.1875 1.875 0 0 Z " fill="#3E1F7E" transform="translate(707,398)"/>
<path d="M0 0 C2.97 0.99 5.94 1.98 9 3 C9 3.33 9 3.66 9 4 C6.69 4.33 4.38 4.66 2 5 C2 4.01 2 3.02 2 2 C1.34 2 0.68 2 0 2 C0 1.34 0 0.68 0 0 Z " fill="#3C1B78" transform="translate(689,390)"/>
<path d="M0 0 C-2.63904371 1.41377341 -5.07120629 2.37240135 -8 3 C-8.33 2.01 -8.66 1.02 -9 0 C-5.52176885 -1.15941038 -3.54104422 -0.70820884 0 0 Z " fill="#310881" transform="translate(701,692)"/>
<path d="M0 0 C3.36720387 1.39332574 4.9859524 2.9789286 7 6 C6.67 6.66 6.34 7.32 6 8 C4.9970458 6.85675161 3.99770973 5.71032809 3 4.5625 C2.443125 3.92441406 1.88625 3.28632812 1.3125 2.62890625 C0 1 0 1 0 0 Z " fill="#35136F" transform="translate(505,648)"/>
<path d="M0 0 C1.06775224 1.96466413 2.06553465 3.96855359 3 6 C2.67 6.66 2.34 7.32 2 8 C1.34 6.35 0.68 4.7 0 3 C-0.99 3.33 -1.98 3.66 -3 4 C-3.33 3.01 -3.66 2.02 -4 1 C-2 0 -2 0 0 0 Z " fill="#3C1684" transform="translate(374,624)"/>
<path d="M0 0 C0.99 0.33 1.98 0.66 3 1 C1.25 3.0625 1.25 3.0625 -1 5 C-3.25 4.75 -3.25 4.75 -5 4 C-2.6875 1.9375 -2.6875 1.9375 0 0 Z " fill="#401E7A" transform="translate(696,619)"/>
<path d="M0 0 C0 0.99 0 1.98 0 3 C-3.3 3.33 -6.6 3.66 -10 4 C-6.86268382 1.90845588 -3.85464592 0 0 0 Z " fill="#FBE6B2" transform="translate(666,616)"/>
<path d="M0 0 C-0.33 0.99 -0.66 1.98 -1 3 C-1.66 3 -2.32 3 -3 3 C-4.62514468 4.45833358 -4.62514468 4.45833358 -6 6 C-6.33 5.01 -6.66 4.02 -7 3 C-4.49955934 -0.00052879 -4.2621484 0 0 0 Z " fill="#401C83" transform="translate(483,608)"/>
<path d="M0 0 C0.99 0.33 1.98 0.66 3 1 C2.01 4.3 1.02 7.6 0 11 C-1.04973814 6.80104745 -0.72795155 4.20594226 0 0 Z " fill="#350A7F" transform="translate(728,570)"/>
<path d="M0 0 C0.99 0 1.98 0 3 0 C2.67 1.65 2.34 3.3 2 5 C1.34 5 0.68 5 0 5 C-0.33 5.66 -0.66 6.32 -1 7 C-0.67 4.69 -0.34 2.38 0 0 Z " fill="#340F79" transform="translate(471,498)"/>
<path d="M0 0 C2.4375 0.8125 2.4375 0.8125 5 2 C5.33 2.99 5.66 3.98 6 5 C5.01 6.485 5.01 6.485 4 8 C2.68 5.36 1.36 2.72 0 0 Z " fill="#360C83" transform="translate(395,663)"/>
<path d="M0 0 C0.66 0 1.32 0 2 0 C6 5.41176471 6 5.41176471 6 8 C2.24623848 6.74874616 1.75926711 5.4347596 0 2 C0 1.34 0 0.68 0 0 Z " fill="#32126E" transform="translate(372,627)"/>
<path d="M0 0 C0.66 0.33 1.32 0.66 2 1 C0.68 3.31 -0.64 5.62 -2 8 C-2.5534764 5.92446352 -3 4.15634036 -3 2 C-2.01 1.34 -1.02 0.68 0 0 Z " fill="#E9DAF5" transform="translate(445,538)"/>
<path d="M0 0 C2.0625 0.4375 2.0625 0.4375 4 1 C4 2.32 4 3.64 4 5 C2.0625 4.6875 2.0625 4.6875 0 4 C-0.33 3.01 -0.66 2.02 -1 1 C-0.67 0.67 -0.34 0.34 0 0 Z " fill="#FDF1C8" transform="translate(656,533)"/>
<path d="M0 0 C1.42944945 2.35438733 2.08661261 3.48032433 1.625 6.25 C1.41875 6.8275 1.2125 7.405 1 8 C0.34 8 -0.32 8 -1 8 C-1.125 2.25 -1.125 2.25 0 0 Z " fill="#FCEFC3" transform="translate(637,478)"/>
<path d="M0 0 C1.32 0.33 2.64 0.66 4 1 C1.36 2.65 -1.28 4.3 -4 6 C-4.33 5.34 -4.66 4.68 -5 4 C-4.0409375 3.8453125 -4.0409375 3.8453125 -3.0625 3.6875 C-2.381875 3.460625 -1.70125 3.23375 -1 3 C-0.67 2.01 -0.34 1.02 0 0 Z " fill="#F09A1B" transform="translate(596,473)"/>
<path d="M0 0 C0.66 0.33 1.32 0.66 2 1 C1.0479279 2.00596297 0.08812654 3.00461563 -0.875 4 C-1.40867187 4.556875 -1.94234375 5.11375 -2.4921875 5.6875 C-4 7 -4 7 -6 7 C-4.77065985 3.31197956 -3.06140622 2.27643027 0 0 Z " fill="#F8970F" transform="translate(602,471)"/>
<path d="M0 0 C2.52588702 2.36292656 3.88820837 3.66462511 5 7 C4.34 7.66 3.68 8.32 3 9 C0 3.375 0 3.375 0 0 Z " fill="#360C84" transform="translate(773,471)"/>
<path d="M0 0 C1.32 1.65 2.64 3.3 4 5 C3.01 5.66 2.02 6.32 1 7 C0.34 6.34 -0.32 5.68 -1 5 C-0.625 2.375 -0.625 2.375 0 0 Z " fill="#F1E8F8" transform="translate(274,468)"/>
</svg>
